<?xml version="1.0" encoding="UTF-8"?>
<svg width="20px" height="16px" viewBox="0 0 20 16" version="1.1" xmlns="http://www.w3.org/2000/svg" xmlns:xlink="http://www.w3.org/1999/xlink">
    <!-- Generator: Sketch 50.2 (55047) - http://www.bohemiancoding.com/sketch -->
    <title>Industry</title>
    <desc>Created with Sketch.</desc>
    <defs>
        <polygon id="path-1" points="0 0 22.4999912 0 22.4999912 18 0 18"></polygon>
    </defs>
    <g id="Page-1" stroke="none" stroke-width="1" fill="none" fill-rule="evenodd">
        <g id="Industry" transform="translate(0.000000, -2.000000)">
            <g>
                <mask id="mask-2" fill="white">
                    <use xlink:href="#path-1"></use>
                </mask>
                <g id="Clip-2"></g>
                <path d="M13.125,8.88465625 L13.125,6.75090625 C13.125,6.15978125 12.3073828,5.8009375 11.6841797,6.11815625 L6.25,8.88465625 L6.25,2.75 C6.25,2.33578125 5.83027344,2 5.3125,2 L0.9375,2 C0.419726563,2 0,2.33578125 0,2.75 L0,17.25 C0,17.6642187 0.419726563,18 0.9375,18 L19.0625,18 C19.5802734,18 20,17.6642187 20,17.25 L20,6.75090625 C20,6.15975 19.1823828,5.8009375 18.5591797,6.11815625 L13.125,8.88465625 Z" id="Fill-1" fill="currentColor" mask="url(#mask-2)"></path>
            </g>
        </g>
    </g>
</svg>