<?xml version="1.0" encoding="UTF-8"?>
<svg width="20px" height="20px" viewBox="0 0 20 20" version="1.1" xmlns="http://www.w3.org/2000/svg" xmlns:xlink="http://www.w3.org/1999/xlink">
    <!-- Generator: Sketch 50.2 (55047) - http://www.bohemiancoding.com/sketch -->
    <title>Facebook</title>
    <desc>Created with Sketch.</desc>
    <defs></defs>
    <g id="Page-1" stroke="none" stroke-width="1" fill="none" fill-rule="evenodd">
        <g id="FB" fill="currentColor">
            <g id="Facebook">
                <path d="M20,18.8957289 C20,19.5053389 19.5058702,20 18.8962436,20 L13.7996786,20 L13.7996786,12.2548486 L16.3994443,12.2548486 L16.7889733,9.23676182 L13.7996786,9.23676182 L13.7996786,7.30932665 C13.7996786,6.43549793 14.0426575,5.8400523 15.2956879,5.8400523 L16.8941189,5.83950752 L16.8941189,3.13957289 C16.6173626,3.10307256 15.6688731,3.02081063 14.5651167,3.02081063 C12.2606303,3.02081063 10.6829016,4.42743517 10.6829016,7.01078666 L10.6829016,9.23676182 L8.07659829,9.23676182 L8.07659829,12.2548486 L10.6829016,12.2548486 L10.6829016,20 L1.10375637,20 C0.494129825,20 0,19.5053389 0,18.8957289 L0,1.10427108 C0,0.494116365 0.494129825,0 1.10375637,0 L18.8962436,0 C19.5058702,0 20,0.494116365 20,1.10427108 L20,18.8957289"></path>
            </g>
        </g>
    </g>
</svg>