<svg xmlns="http://www.w3.org/2000/svg" viewBox="0 0 24 24"><path fill="currentColor" d="M12 0C5.4 0 0 5.4 0 12s5.4 12 12 12 12-5.4 12-12S18.6 0 12 0zm4.4 5.3h-3.9V1.5c1.6.2 2.9 1.7 3.9 3.8zM15.3 2c1.9.6 3.6 1.8 4.8 3.4h-2.7c-.6-1.5-1.3-2.6-2.1-3.4zm1.4 4.3c.5 1.5.9 3.3.9 5.2h-5.2V6.3h4.3zm1 6.1c0 2-.4 3.8-.9 5.3h-4.3v-5.3h5.2zm-1.3 6.3c-1 2.2-2.3 3.6-3.9 3.8v-3.8h3.9zM15.3 22c.9-.8 1.6-2 2.1-3.4h2.7c-1.2 1.6-2.9 2.8-4.8 3.4zm2.5-4.3c.5-1.6.8-3.4.9-5.3h3.9c-.1 2-.7 3.8-1.7 5.3h-3.1zm.8-6.3c0-1.9-.3-3.6-.9-5.2h3.1c1 1.5 1.6 3.3 1.7 5.2h-3.9zM6.2 6.3c-.5 1.7-.8 3.4-.8 5.2h-4c.1-1.8.7-3.6 1.7-5.2h3.1zm-2.4-1c1.3-1.5 3-2.7 4.9-3.3-.9.8-1.6 2-2.1 3.4H3.8zm1.6 7.1c0 2 .3 3.7.9 5.3H3.1c-1-1.5-1.6-3.4-1.7-5.3h4zm1.2 6.3c.6 1.4 1.3 2.5 2.1 3.4-1.9-.6-3.6-1.8-4.8-3.4h2.7zm1 0h3.9v3.8c-1.6-.2-2.9-1.7-3.9-3.8zm-.3-1c-.5-1.5-.9-3.4-.9-5.3h5.2v5.3H7.3zm-1-6.2c0-1.9.4-3.6.9-5.2h4.3v5.2H6.3zm1.3-6.2c1-2.2 2.3-3.6 3.9-3.8v3.8H7.6z"/></svg>