<svg xmlns="http://www.w3.org/2000/svg" viewBox="0 0 100 100">
<path d="M93.6 3.3c0-1.7-1.2-3.3-3.3-3.3H9.8C7.7 0 6.5 1.2 6.5 3.3v3.3h87.1V3.3zM3.5 100C1.4 100 0 98.8 0 97.1V37.3l50 31.1 50-31.1v59.3c-.2 1.7-1.5 3.3-3.5 3.3l-93 .1zm9.2-87.6h12.4L12.7 24.8V12.4zm24.9 6.3c0 3.3-2.9 6.2-6.2 6.2-3.3 0-6.2-2.9-6.2-6.2s2.9-6.2 6.2-6.2c3.2-.1 6.2 2.9 6.2 6.2zM16 31.1h68.5c1.7 0 3.3 1.2 3.3 3.3 0 2.1-1.7 2.9-3.3 2.9H16c-2.1 0-3.3-1.2-3.3-2.9 0-1.6 1.2-3.3 3.3-3.3zm34 31.1L40 56h19.9L50 62.2zM18.9 43.6h62.2l-10 6.2H28.8l-9.9-6.2z"/>
</svg>
