<svg xmlns="http://www.w3.org/2000/svg" viewBox="0 0 24 24"><path fill="currentColor" d="M14.7 17H9.3c-.2 0-.3.4-.3 1s.1 1 .3 1h5.3c.2 0 .3-.4.3-1 .1-.6 0-1-.2-1zm0 3H9.3c-.2 0-.3.4-.3 1s.1 1 .3 1h5.3c.2 0 .3-.4.3-1s0-1-.2-1zm-.9 2h-3.6c-.1 0-.2.4-.2 1s.1 1 .2 1h3.6c.1 0 .2-.4.2-1s-.1-1-.2-1zM12.3 9l-1.6-1.6c-.1-.1-.2-.1-.4-.1-.1 0-.3 0-.4.1L8.2 9.2c-.2.2-.2.5 0 .7s.5.2.6 0l1.6-1.6L12 9.9c.1.1.3.2.4.1.1 0 .2 0 .3-.1l3.1-3.1c.2-.2.2-.5 0-.6-.2-.2-.4-.2-.6 0L12.3 9zm-4.2 5.6C5.6 13.2 4 10.6 4 7.8 4 3.5 7.6 0 12.1 0S20 3.5 20 7.8c0 2.9-1.5 5.6-4.2 7v.8c0 .2-.2.4-.4.4H8.5c-.2 0-.4-.2-.4-.4v-1z"/></svg>