<svg xmlns="http://www.w3.org/2000/svg" viewBox="0 0 24 24"><path fill="currentColor" d="M0 3c0-1.7 1.3-3 3-3h6c1.7 0 3 1.3 3 3v3h9c1.7 0 3 1.3 3 3v12c0 1.7-1.3 3-3 3H3c-1.7 0-3-1.3-3-3V3zm18 12c.8 0 1.5-.7 1.5-1.5V12c0-.8-.7-1.5-1.5-1.5s-1.5.7-1.5 1.5v1.5c0 .8.7 1.5 1.5 1.5zM6 15c.8 0 1.5-.7 1.5-1.5V12c0-.8-.7-1.5-1.5-1.5s-1.5.7-1.5 1.5v1.5c0 .8.7 1.5 1.5 1.5zm0-6c.8 0 1.5-.7 1.5-1.5V6c0-.8-.7-1.5-1.5-1.5S4.5 5.2 4.5 6v1.5C4.5 8.3 5.2 9 6 9zm0 12c.8 0 1.5-.7 1.5-1.5V18c0-.8-.7-1.5-1.5-1.5s-1.5.7-1.5 1.5v1.5c0 .8.7 1.5 1.5 1.5zm12 0c.8 0 1.5-.7 1.5-1.5V18c0-.8-.7-1.5-1.5-1.5s-1.5.7-1.5 1.5v1.5c0 .8.7 1.5 1.5 1.5z"/></svg>