<svg xmlns="http://www.w3.org/2000/svg" viewBox="0 0 24 24"><path fill="currentColor" d="M0 1c0-.6.4-1 1-1h10c.6 0 1 .4 1 1v5h11c.6 0 1 .4 1 1v16c0 .6-.4 1-1 1H1c-.6 0-1-.4-1-1V1zm18 14c.8 0 1.5-.7 1.5-1.5V12c0-.8-.7-1.5-1.5-1.5s-1.5.7-1.5 1.5v1.5c0 .8.7 1.5 1.5 1.5zM6 15c.8 0 1.5-.7 1.5-1.5V12c0-.8-.7-1.5-1.5-1.5s-1.5.6-1.5 1.5v1.5c0 .8.7 1.5 1.5 1.5zm0-6c.8 0 1.5-.7 1.5-1.5V6c0-.8-.7-1.5-1.5-1.5S4.5 5.2 4.5 6v1.5C4.5 8.3 5.2 9 6 9zm0 12c.8 0 1.5-.7 1.5-1.5V18c0-.8-.7-1.5-1.5-1.5s-1.5.6-1.5 1.5v1.5c0 .8.7 1.5 1.5 1.5zm12 0c.8 0 1.5-.7 1.5-1.5V18c0-.8-.7-1.5-1.5-1.5s-1.5.7-1.5 1.5v1.5c0 .8.7 1.5 1.5 1.5z"/></svg>