<?xml version="1.0" encoding="UTF-8"?>
<svg width="20px" height="20px" viewBox="0 0 20 20" version="1.1" xmlns="http://www.w3.org/2000/svg" xmlns:xlink="http://www.w3.org/1999/xlink">
    <!-- Generator: Sketch 50.2 (55047) - http://www.bohemiancoding.com/sketch -->
    <title>phone</title>
    <desc>Created with Sketch.</desc>
    <defs></defs>
    <g id="Page-1" stroke="none" stroke-width="1" fill="none" fill-rule="evenodd">
        <g id="Telephone" fill="currentColor" fill-rule="nonzero">
            <g id="phone">
                <path d="M18.0696196,19.0691989 C17.6695547,19.6804735 16.974705,20.0388069 16.2377432,19.99665 C15.5007814,19.9544931 14.5532591,19.849101 13.9005215,19.6804735 C10.9947864,18.9216499 7.98377106,17.1089046 5.43598885,14.5584141 C2.88820664,12.0079236 1.07738622,8.99370761 0.319368376,6.08488376 C0.150919966,5.43145232 0.0666957603,4.50400123 0.00352760628,3.76625606 C-0.0385844964,3.04958931 0.298312325,2.354001 0.908937814,1.95351076 L3.49883213,0.225079196 C4.17262577,-0.217567912 5.07803598,0.0142948588 5.43598885,0.730961604 L7.54159398,4.79909931 C7.8363787,5.36821702 7.68898634,6.08488376 7.18364111,6.485374 L5.28859649,7.96086436 C6.04661434,9.37311942 6.76252008,10.5113548 8.15221947,11.881453 C9.4366386,13.1672375 10.5526093,13.9260611 12.0054769,14.7059631 L13.5004565,12.7878257 C13.9005215,12.2819433 14.6164272,12.1133158 15.1849406,12.4294923 L19.2698146,14.5373357 C19.9857203,14.895669 20.2173369,15.8020417 19.7751598,16.4765516 L18.0696196,19.0691989 Z"></path>
            </g>
        </g>
    </g>
</svg>