<svg xmlns="http://www.w3.org/2000/svg" viewBox="0 0 32 32"><path d="M24.4 10.933v12.8c0 0.8-0.533 1.333-1.333 1.333h-2v4.133c0 1.067-0.8 1.867-1.867 1.867s-1.867-0.8-1.867-1.867v-4.133h-2.667v4.133c0 1.067-0.8 1.867-1.867 1.867s-1.867-0.8-1.867-1.867v-4.133h-2.133c-0.8 0-1.333-0.533-1.333-1.333v-12.8h16.933zM6.667 12.533c0-1.067-0.8-1.867-1.867-1.867s-1.867 0.8-1.867 1.867v7.733c0 1.067 0.8 1.867 1.867 1.867s1.867-0.8 1.867-1.867v-7.733zM29.067 12.533c0-1.067-0.8-1.867-1.867-1.867s-1.867 0.8-1.867 1.867v7.733c0 1.067 0.8 1.867 1.867 1.867s1.867-0.8 1.867-1.867v-7.733zM20.267 3.6c1.333 0.667 2.4 1.6 3.2 2.8s1.2 2.533 1.2 4h-17.333c0-1.467 0.4-2.667 1.2-3.867s1.867-2.133 3.2-2.8l-1.333-2.4c-0.133-0.133 0-0.267 0.133-0.4s0.267 0 0.4 0.133l1.333 2.4c1.2-0.533 2.4-0.8 3.733-0.8s2.533 0.267 3.733 0.8l1.333-2.4c0.133-0.133 0.267-0.133 0.4-0.133 0.133 0.133 0.133 0.267 0.133 0.4l-1.333 2.267zM12 5.867c-0.4 0-0.667 0.267-0.667 0.667s0.267 0.8 0.667 0.8 0.667-0.267 0.667-0.667-0.267-0.8-0.667-0.8zM20 5.867c-0.4 0-0.667 0.267-0.667 0.667s0.267 0.8 0.667 0.8 0.667-0.267 0.667-0.667-0.4-0.8-0.667-0.8z"></path></svg>
