<svg xmlns="http://www.w3.org/2000/svg" viewBox="0 0 24 24"><path fill="currentColor" d="M23 7.4C20.5 1.3 13.2-1.5 7.3 1 1.2 3.5-1.6 10.8.9 16.7c2.5 6.1 9.8 8.9 15.7 6.4 6.1-2.5 9.1-9.7 6.4-15.7-.5-1.5.7 1.4 0 0zm-3.7 11.9c-3.9 3.9-10.5 3.9-14.4 0C1 15.4 1 8.8 4.9 4.9s10.5-3.9 14.4 0c3.9 3.9 3.9 10.3 0 14.4-2 2 1.9-1.9 0 0zm-6.6-3.2h-1.2c-.2 0-.2.2-.2.2v1.4c0 .2.2.2.2.2h1.4c.2 0 .2-.2.2-.2v-1.4c-.1-.2-.2-.2-.4-.2 0 0 .2 0 0 0zm-1.3-1.8h1.4c.2 0 .2-.2.2-.2V6.5c0-.2-.2-.2-.2-.2h-1.4c-.2 0-.2.2-.2.2V14c-.1.1 0 .3.2.3 0 0-.2 0 0 0z"/></svg>