<?xml version="1.0" encoding="UTF-8"?>
<svg width="20px" height="20px" viewBox="0 0 20 20" version="1.1" xmlns="http://www.w3.org/2000/svg" xmlns:xlink="http://www.w3.org/1999/xlink">
    <!-- Generator: Sketch 50.2 (55047) - http://www.bohemiancoding.com/sketch -->
    <title>skills</title>
    <desc>Created with Sketch.</desc>
    <defs></defs>
    <g id="Page-1" stroke="none" stroke-width="1" fill="none" fill-rule="evenodd">
        <g id="Skills">
            <g id="skills">
                <g id="Group-14">
                    <g id="Page-1" transform="translate(0.000000, 0.833333)" fill="currentColor">
                        <path d="M15.2007693,16.344375 L13.6912455,14.25425 L15.2188645,9.52295833 L17.6612455,8.72466667 L15.2007693,16.344375 Z M5.84695975,17.3995 L7.29838832,15.389875 L12.475055,15.389875 L13.9264836,17.3995 L5.84695975,17.3995 Z M2.11267404,8.72466667 L4.55505499,9.52295833 L6.08267404,14.25425 L4.57315023,16.344375 L2.11267404,8.72466667 Z M9.06315023,2.6004375 L9.06315023,5.34558333 L5.3693407,8.04664583 L2.77410261,7.19804167 L9.06315023,2.6004375 Z M6.6593407,8.4683125 L9.06315023,6.71120833 L9.06315023,9.25414583 L6.6593407,8.4683125 Z M8.55410261,10.8306042 L6.87981689,13.1492917 L5.84553118,9.94510417 L8.55410261,10.8306042 Z M9.88695975,11.80475 L11.6779121,14.2853958 L8.09600737,14.2853958 L9.88695975,11.80475 Z M13.9283883,9.94510417 L12.8936264,13.1492917 L11.2193407,10.8306042 L13.9283883,9.94510417 Z M10.7098169,6.71120833 L13.1141026,8.4683125 L10.7098169,9.25414583 L10.7098169,6.71120833 Z M10.7098169,2.59995833 L16.9993407,7.19804167 L14.4045788,8.04664583 L10.7098169,5.34510417 L10.7098169,2.59995833 Z M19.2774359,6.57895833 L10.5945788,0.2314375 C10.1721978,-0.0771458333 9.60124547,-0.0771458333 9.17886451,0.2314375 L0.496483561,6.57895833 C0.0745787987,6.88754167 -0.102087868,7.43427083 0.058864513,7.9335625 L3.37553118,18.2040208 C3.53695975,18.7033125 3.9993407,19.0416042 4.52076927,19.0416042 L15.252674,19.0416042 C15.7745788,19.0416042 16.2369598,18.7033125 16.3983883,18.2040208 L19.7145788,7.9335625 C19.8755312,7.43427083 19.6988645,6.88754167 19.2774359,6.57895833 Z" id="Fill-1"></path>
                    </g>
                    <rect id="Rectangle-20" x="0" y="0" width="20" height="20"></rect>
                </g>
            </g>
        </g>
    </g>
</svg>