<svg xmlns="http://www.w3.org/2000/svg" viewBox="0 0 24 24"><path fill="currentColor" d="M18.5 20.3l-1.8-2.5 1.9-5.7 3-1-3.1 9.2zM7.1 21.6l1.8-2.4h6.3l1.8 2.4H7.1zM2.6 11l3 1 1.9 5.7-1.8 2.5L2.6 11zM11 3.6v3.3l-4.5 3.3-3.1-1L11 3.6zm-2.9 7.1L11 8.6v3.1l-2.9-1zm2.3 2.9l-2 2.8-1.3-3.9 3.3 1.1zm1.6 1.2l2.2 3H9.8l2.2-3zm4.9-2.3l-1.3 3.9-2-2.8 3.3-1.1zM13 8.6l2.9 2.1-2.9 1V8.6zm0-5l7.6 5.6-3.2 1L13 6.9V3.6zm10.4 4.8L12.9.7c-.5-.4-1.2-.4-1.7 0L.6 8.4c-.5.4-.7 1-.5 1.6l4 12.5c.2.6.8 1 1.4 1h13c.6 0 1.2-.4 1.4-1l4-12.5c.2-.5 0-1.2-.5-1.6z"/></svg>