<svg xmlns="http://www.w3.org/2000/svg" viewBox="0 0 24 24"><path fill="currentColor" d="M12 16.1c-.7 0-1.4.6-1.4 1.4 0 .7.6 1.4 1.4 1.4s1.4-.6 1.4-1.4c0-.8-.7-1.4-1.4-1.4zm.4-1.2h-.8c-.3 0-.6-.3-.6-.6 0-3.4 3.7-3.1 3.7-5.2 0-1-.9-1.9-2.8-1.9-1.4 0-2.1.5-2.9 1.4-.1.2-.4.2-.7.1l-.6-.5c-.3-.2-.3-.5-.1-.8 1-1.3 2.2-2.2 4.4-2.2 2.5 0 4.7 1.4 4.7 3.9 0 3.3-3.7 3.1-3.7 5.2 0 .3-.3.6-.6.6zM12 1.5c5.7 0 10.5 4.6 10.5 10.5 0 5.8-4.7 10.5-10.5 10.5S1.5 17.8 1.5 12 6.2 1.5 12 1.5M12 0C5.4 0 0 5.4 0 12s5.4 12 12 12 12-5.4 12-12S18.6 0 12 0z"/></svg>