<svg xmlns="http://www.w3.org/2000/svg" viewBox="0 0 24 24"><path fill="currentColor" d="M10.4 22.9H.7c-.4 0-.7-.3-.7-.7v-11c0-.4.3-.7.7-.7h9.7c.4 0 .7.3.7.7v11.2c.1.2-.2.5-.7.5zM9.1 4.8c0 2.2-1.6 3.9-3.7 3.9S1.5 7.1 1.5 4.8C1.5 2.6 3.1 1 5.4 1c2.2 0 3.7 1.8 3.7 3.8zM14.8 1h7.6c.9 0 1.6.7 1.6 1.6 0 .9-.7 1.6-1.6 1.6h-7.6c-.9 0-1.6-.7-1.6-1.6.1-.9.7-1.6 1.6-1.6zm0 12.5h7.6c.9 0 1.6.7 1.6 1.6s-.7 1.6-1.6 1.6h-7.6c-.9 0-1.6-.7-1.6-1.6.1-.9.7-1.6 1.6-1.6zm0-6.3h7.6c.9 0 1.6.8 1.6 1.7s-.9 1.6-1.8 1.6h-7.5c-.9 0-1.6-.7-1.6-1.6.2-.9.8-1.7 1.7-1.7zm0 12.6h7.6c.9 0 1.6.7 1.6 1.6 0 .9-.7 1.6-1.6 1.6h-7.6c-.9 0-1.6-.7-1.6-1.6.1-.9.7-1.6 1.6-1.6z"/></svg>