<svg xmlns="http://www.w3.org/2000/svg" viewBox="0 0 24 24"><path fill="currentColor" d="M18.9 8.7H15c.3-1.5.9-4.6 0-6.9-.9-2.2-4.1-2.4-5 0-.5 1-2.7 8.1-3.1 9.4H3.1c-1.7 0-3.1 1.4-3.1 3.1v6.5c0 1.7 1.4 3.1 3.1 3.1h15.8c2.7 0 5.1-2.2 5.1-5.1v-5c0-1.4-.5-2.7-1.5-3.6-.9-1-2.3-1.5-3.6-1.5zM1.7 20.8v-6.5c0-.9.7-1.4 1.4-1.4h3.3v6c0 1.4.5 2.6 1.4 3.4H3.1c-.7.1-1.4-.6-1.4-1.5 0 0 0 .9 0 0zM22.3 19c0 1.9-1.5 3.4-3.4 3.4h-7.4c-1.9 0-3.4-1.5-3.4-3.4v-5.7c0-.5.2-.9.3-1.4.5-1.9 1.2-3.8 1.9-5.7.3-1 .7-2.2 1-3.3.3-1 1.4-1.9 2.1-.5.3 1 .3 2.6.2 4.3-.2.7-1.4 3.6.2 3.6h5.1c1.9 0 3.4 1.5 3.4 3.3V19c0 1.8 0 0 0 0z"/></svg>