<svg viewBox="0 0 175 175" xmlns="http://www.w3.org/2000/svg"><defs><linearGradient x1="4.8671%" y1="0%" y2="100%" id="a"><stop stop-opacity=".556" offset="0%"/><stop stop-opacity=".1644" offset="100%"/></linearGradient></defs><g fill="none" fill-rule="evenodd"><path fill="#FFF" d="M-73-96h320v568H-73z"/><path fill="#EEE" d="M-73-32h320v504H-73z"/><path fill="#FFF" d="M-73-32h320v455H-73z"/><g><path fill="#FFF" d="M0 .4972h175v174.0057H0z"/><g opacity=".9224" transform="rotate(11 -350.3956 564.4945)"><g><rect fill="#90BBFD" x=".9975" y="-.0003" width="32" height="52" rx="2"/><circle fill="#F8F8FA" cx="17" cy="49" r="2"/><rect fill="#F8F8FA" x="3.0003" y="2.0044" width="28" height="44" rx="2"/><path d="M3.0001 21.0034h28v23c0 1.1046-.8954 2-2 2h-24c-1.1046 0-2-.8954-2-2v-23z" fill="#3D6095"/></g><g fill="#FFF"><path d="M11.6003 27.6003c.7455-.7456 1.9543-.7456 2.6998 0l8.0996 8.0996c.7456.7455.7456 1.9543 0 2.6998-.7455.7456-1.9543.7456-2.6998 0l-8.0996-8.0996c-.7456-.7455-.7456-1.9543 0-2.6998z"/><path d="M22.3997 27.6003c.7456.7455.7456 1.9543 0 2.6998l-8.0996 8.0996c-.7455.7456-1.9543.7456-2.6998 0-.7456-.7455-.7456-1.9543 0-2.6998l8.0996-8.0996c.7455-.7456 1.9543-.7456 2.6998 0z"/></g><rect fill="#CCC" x="16" y="8" width="12" height="1.5" rx=".75"/><rect fill="#CCC" x="13" y="11" width="15" height="1.5" rx=".75"/><path d="M18.75 14h8.5a.75.75 0 1 1 0 1.5h-8.5a.75.75 0 1 1 0-1.5z" fill="#CCC"/><path d="M2.1351 9.144l25.9607 42.9094-25.1398-.0126c-1.1046-.0005-1.9996-.8964-1.999-2.001a2 2 0 0 1 .0008-.0566L2.135 9.1441z" fill="url(#a)"/></g><rect fill-opacity=".1637" fill="#90BBFD" y="134" width="175" height="4" rx="2"/><g transform="rotate(-15 221.403 -52.7236)"><g transform="translate(10 10)"><path d="M4 0h52c2.2091 0 4 1.7909 4 4v67c0 2.2091-1.7909 4-4 4H4c-2.2091 0-4-1.7909-4-4V4c0-2.2091 1.7909-4 4-4z" fill="#90BBFD"/><path d="M8 4h44c2.2091 0 4 1.7909 4 4v53c0 2.2091-1.7909 4-4 4H8c-2.2091 0-4-1.7909-4-4V8c0-2.2091 1.7909-4 4-4z" fill="#F8F8FA"/><path d="M8 4h44c2.2091 0 4 1.7909 4 4v39H4V8c0-2.2091 1.7909-4 4-4z" fill="#3D6095"/><circle fill="#F8F8FA" cx="30" cy="70" r="3"/></g><rect fill="#CCC" x="18" y="61" width="24" height="2" rx="1"/><rect fill="#CCC" x="18" y="65" width="32" height="2" rx="1"/><rect fill="#CCC" x="18" y="69" width="15" height="2" rx="1"/><g transform="translate(29 25)" fill="#FFF"><rect transform="rotate(-45 11 11)" x="8" y="-1" width="6" height="24" rx="3"/><rect transform="rotate(45 11 11)" x="8" y="-1" width="6" height="24" rx="3"/></g><rect fill="#3D6095" x="13" width="3" height="7" rx="1.5"/><path d="M4.0607 3.0607c.5857-.5858 1.5355-.5858 2.1213 0L9.0104 5.889c.5858.5858.5858 1.5355 0 2.1213-.5858.5858-1.5355.5858-2.1213 0L4.0607 5.182c-.5858-.5858-.5858-1.5356 0-2.1213zM.1307 13.4943c.0722-.8253.7998-1.4358 1.625-1.3636l3.9848.3487c.8253.0722 1.4358.7997 1.3636 1.625-.0722.8253-.7998 1.4357-1.625 1.3635l-3.9848-.3486c-.8253-.0722-1.4358-.7997-1.3636-1.625z" fill="#3D6095"/></g></g></g></svg>