<svg xmlns="http://www.w3.org/2000/svg" viewBox="0 0 24 24"><path fill="currentColor" d="M12 0C5.4 0 0 5.4 0 12s5.4 12 12 12 12-5.4 12-12S18.6 0 12 0zm0 22.2C6.4 22.2 1.8 17.7 1.8 12 1.8 6.4 6.3 1.8 12 1.8c5.5 0 10.2 4.5 10.2 10.2 0 5.5-4.7 10.2-10.2 10.2zM10.5 17c4 0 7.4-3.3 7-7.5.6-.4.9-.8 1.2-1.3-.5.3-.9.5-1.5.5.6-.3.9-.8 1-1.4-.6.3-1 .6-1.7.6-.9-1.1-2.5-1.1-3.4-.2-.6.6-.8 1.5-.6 2.4-2 0-3.8-1.1-5-2.6-.8 1.2-.5 2.7.8 3.3-.5 0-.8-.2-1.2-.3 0 1.2.8 2.3 2 2.4-.5.2-.8.2-1 0 .3 1.1 1.2 1.8 2.3 1.8-.9.6-3.5 1-3.8 1 1.2.8 2.5 1.3 3.9 1.3"/></svg>