<svg xmlns="http://www.w3.org/2000/svg" viewBox="0 0 32 32"><path d="M31.067 3.2c-1.333 0.8-2.667 1.333-4.133 1.6-4.533-5.067-12.667-0.267-11.2 6.133-5.467-0.267-10.267-2.933-13.467-7.067-1.733 3.067-0.933 7.067 2 9.067-1.067-0.133-2.133-0.4-2.933-0.933v0.133c0 3.2 2.267 6 5.333 6.667-0.933 0.267-2 0.267-2.933 0.133 0.8 2.667 3.2 4.667 6.133 4.667-2.667 2.133-6.267 3.2-9.733 2.8 6.4 4.267 15.2 4 21.333-0.8 4.933-3.867 7.6-10.133 7.333-16.267 1.333-0.933 2.4-2.133 3.333-3.467-1.2 0.533-2.4 0.933-3.733 1.067 1.2-0.933 2.267-2.267 2.667-3.733z"></path></svg>
