<svg xmlns="http://www.w3.org/2000/svg" viewBox="0 0 24 24"><path fill="currentColor" d="M23.3 24H.8c-.5 0-.8-.3-.8-.7V.8C0 .3.3 0 .8 0h22.5c.4 0 .7.3.7.8v22.5c0 .4-.3.7-.7.7zM18.8 7.5c1.2 0 2.3-1 2.3-2.3S20 3 18.8 3h-3c-1.2 0-2.3 1-2.3 2.3s1 2.3 2.3 2.3h3zm-10.5 0c1.2 0 2.3-1 2.3-2.3S9.5 3 8.3 3h-3C4 3 3 4 3 5.3s1 2.3 2.3 2.3h3zm10.5 7c1.2 0 2.3-1 2.3-2.3 0-1.2-1-2.3-2.3-2.3h-3c-1.2 0-2.3 1-2.3 2.3 0 1.2 1 2.3 2.3 2.3h3zm0 6.5c1.2 0 2.3-1 2.3-2.3s-1-2.3-2.3-2.3h-3c-1.2 0-2.3 1-2.3 2.3s1 2.3 2.3 2.3h3zM7.5 21c1.7 0 3-1.3 3-3v-5c0-1.7-1.3-3-3-3H6c-1.7 0-3 1.3-3 3v5c0 1.7 1.3 3 3 3h1.5z"/></svg>