<svg xmlns="http://www.w3.org/2000/svg" viewBox="0 0 24 24"><path fill="currentColor" d="M22.5 24h-21C.7 24 0 23.3 0 22.5v-3c0-2.6 1.7-4.9 4.2-5.7-1.2-.7-2-2-1.9-3.4 0-2.1 1.8-3.7 3.8-3.7 2 .1 3.6 1.7 3.6 3.7 0 1.4-.7 2.7-2 3.3 1.6.5 2.9 1.6 3.6 3.1l.3.3c.3.2.7 0 .9-.3.7-1.5 2-2.6 3.6-3.1-1.2-.7-2-2-1.9-3.4 0-2.1 1.8-3.7 3.8-3.7 2 .1 3.6 1.7 3.6 3.7 0 1.4-.7 2.6-2 3.3 2.5.8 4.2 3.1 4.2 5.7v3c.2 1-.5 1.7-1.3 1.7zM15.7 3.7c0 2.1-1.7 3.7-3.7 3.7-2.1 0-3.7-1.7-3.7-3.7S9.9 0 12 0s3.7 1.7 3.7 3.7z"/></svg>