<?xml version="1.0" encoding="UTF-8"?>
<svg width="20px" height="20px" viewBox="0 0 20 20" version="1.1" xmlns="http://www.w3.org/2000/svg" xmlns:xlink="http://www.w3.org/1999/xlink">
    <!-- Generator: Sketch 50.2 (55047) - http://www.bohemiancoding.com/sketch -->
    <title>Company Size</title>
    <desc>Created with Sketch.</desc>
    <defs>
        <polygon id="path-1" points="0 0 20 0 20 20 0 20"></polygon>
    </defs>
    <g id="Page-1" stroke="none" stroke-width="1" fill="none" fill-rule="evenodd">
        <g id="Company-Size">
            <g>
                <mask id="mask-2" fill="white">
                    <use xlink:href="#path-1"></use>
                </mask>
                <g id="Clip-2"></g>
                <path d="M18.75,20.0002 C19.44,20.0002 20,19.4402 20,18.7502 L20,16.2502 C20.001,14.0632 18.582,12.1312 16.496,11.4772 C17.507,10.9302 18.133,9.8702 18.125,8.7212 C18.094,7.0522 16.77,5.6962 15.103,5.6252 C13.377,5.5832 11.944,6.9482 11.902,8.6742 C11.875,9.8342 12.492,10.9142 13.506,11.4792 C12.191,11.8932 11.105,12.8292 10.502,14.0682 C10.358,14.3472 10.016,14.4552 9.738,14.3112 C9.634,14.2572 9.55,14.1732 9.496,14.0682 C8.894,12.8302 7.808,11.8942 6.494,11.4792 C7.505,10.9332 8.132,9.8732 8.125,8.7232 C8.095,7.0532 6.77,5.6962 5.102,5.6252 C3.376,5.5842 1.945,6.9502 1.904,8.6752 C1.877,9.8332 2.493,10.9122 3.504,11.4772 C1.418,12.1312 -0.001,14.0632 8.88178314e-16,16.2502 L8.88178314e-16,18.7502 C8.88178314e-16,19.4402 0.56,20.0002 1.25,20.0002 L18.75,20.0002 Z" id="Fill-1" fill="currentColor" mask="url(#mask-2)"></path>
                <path d="M13.1113,3.111 C13.1113,4.829 11.7173,6.222 10.0003,6.222 C8.2813,6.222 6.8893,4.829 6.8893,3.111 C6.8893,1.393 8.2813,0 10.0003,0 C11.7173,0 13.1113,1.393 13.1113,3.111" id="Fill-4" fill="currentColor" mask="url(#mask-2)"></path>
            </g>
        </g>
    </g>
</svg>