<svg xmlns="http://www.w3.org/2000/svg" viewBox="0 0 24 24"><path fill="currentColor" d="M22.5 2.4h-1.2v1.8c0 1.3-1.1 2.3-2.5 2.3s-2.5-1-2.5-2.3V2.4H7.8v1.8c0 1.3-1.1 2.3-2.5 2.3s-2.5-1-2.5-2.3V2.4H1.5C.7 2.4 0 3.1 0 3.8v18.8c0 .7.7 1.4 1.5 1.4h21c.8 0 1.5-.6 1.5-1.4V3.8c0-.7-.7-1.4-1.5-1.4zM6 21.5H3v-2.8h3v2.8zm0-4.7H3V14h3v2.8zm0-5H3V9.1h3v2.7zm5.1 9.7h-3v-2.8h3v2.8zm0-4.7h-3V14h3v2.8zm0-5h-3V9.1h3v2.7zm5.1 9.7h-3v-2.8h3v2.8zm0-4.7h-3V14h3v2.8zm0-5h-3V9.1h3v2.7zm5.1 5h-3V14h3v2.8zm0-5h-3V9.1h3v2.7zm-2.5-6.2c.9 0 1.6-.7 1.6-1.5V1.6c0-.8-.7-1.5-1.6-1.5-.9 0-1.7.7-1.7 1.5V4c0 .9.7 1.6 1.7 1.6m-13.6 0c.9 0 1.6-.7 1.6-1.5V1.6C6.9.7 6.2 0 5.2 0c-.9 0-1.6.7-1.6 1.6V4c0 .9.7 1.6 1.6 1.6"/></svg>