<?xml version="1.0" encoding="UTF-8"?>
<svg width="20px" height="20px" viewBox="0 0 20 20" version="1.1" xmlns="http://www.w3.org/2000/svg" xmlns:xlink="http://www.w3.org/1999/xlink">
    <!-- Generator: Sketch 50.2 (55047) - http://www.bohemiancoding.com/sketch -->
    <title>Job Posted/Closing/Expiry Date</title>
    <desc>Created with Sketch.</desc>
    <defs></defs>
    <g id="Page-1" stroke="none" stroke-width="1" fill="none" fill-rule="evenodd">
        <g id="Job-Posted/Closing/Expiry-Date" fill="currentColor">
            <g>
                <path d="M15.25,9.81583333 L17.75,9.81583333 L17.75,7.51666667 L15.25,7.51666667 L15.25,9.81583333 Z M15.25,13.9533333 L17.75,13.9533333 L17.75,11.6541667 L15.25,11.6541667 L15.25,13.9533333 Z M10.9991667,9.81583333 L13.5,9.81583333 L13.5,7.51666667 L10.9991667,7.51666667 L10.9991667,9.81583333 Z M10.9991667,13.9533333 L13.5,13.9533333 L13.5,11.6541667 L10.9991667,11.6541667 L10.9991667,13.9533333 Z M10.9991667,17.8625 L13.5,17.8625 L13.5,15.5625 L10.9991667,15.5625 L10.9991667,17.8625 Z M6.75,9.81583333 L9.25,9.81583333 L9.25,7.51666667 L6.75,7.51666667 L6.75,9.81583333 Z M6.75,13.9533333 L9.25,13.9533333 L9.25,11.6541667 L6.75,11.6541667 L6.75,13.9533333 Z M6.75,17.8625 L9.25,17.8625 L9.25,15.5625 L6.75,15.5625 L6.75,17.8625 Z M2.5,9.81583333 L5,9.81583333 L5,7.51666667 L2.5,7.51666667 L2.5,9.81583333 Z M2.5,13.9533333 L5,13.9533333 L5,11.6541667 L2.5,11.6541667 L2.5,13.9533333 Z M2.5,17.8625 L5,17.8625 L5,15.5625 L2.5,15.5625 L2.5,17.8625 Z M18.75,2 L17.75,2 L17.75,3.49416667 C17.75,4.57333333 16.7983333,5.4475 15.625,5.4475 C14.4516667,5.4475 13.5,4.57333333 13.5,3.49416667 L13.5,2 L6.49916667,2 L6.49916667,3.49416667 C6.49916667,4.57333333 5.54833333,5.4475 4.375,5.4475 C3.20166667,5.4475 2.25,4.57333333 2.25,3.49416667 L2.25,2 L1.25,2 C0.559166667,2 0,2.51416667 0,3.14916667 L0,18.7808333 C0,19.4166667 0.559166667,19.9308333 1.25,19.9308333 L18.75,19.9308333 C19.4408333,19.9308333 20,19.4166667 20,18.7808333 L20,3.14916667 C20,2.51416667 19.44,2 18.75,2 Z" id="Fill-1"></path>
                <path d="M15.625,4.59775 C16.3833333,4.59775 16.9991667,4.03191667 16.9991667,3.33358333 L16.9991667,1.26441667 C16.9991667,0.566083333 16.3833333,0.00025 15.625,0.00025 C14.8658333,0.00025 14.25,0.566083333 14.25,1.26441667 L14.25,3.33358333 C14.25,4.03108333 14.8658333,4.59775 15.625,4.59775" id="Fill-3"></path>
                <path d="M4.37458333,4.59775 C5.13375,4.59775 5.74958333,4.03191667 5.74958333,3.33358333 L5.74958333,1.26441667 C5.74958333,0.566083333 5.13458333,0.00025 4.37458333,0.00025 C3.61541667,0.00025 2.99958333,0.566083333 2.99958333,1.26441667 L2.99958333,3.33358333 C2.99958333,4.03108333 3.61541667,4.59775 4.37458333,4.59775" id="Fill-4"></path>
            </g>
        </g>
    </g>
</svg>