<?xml version="1.0" encoding="UTF-8"?>
<svg width="20px" height="16px" viewBox="0 0 20 16" version="1.1" xmlns="http://www.w3.org/2000/svg" xmlns:xlink="http://www.w3.org/1999/xlink">
    <!-- Generator: Sketch 50.2 (55047) - http://www.bohemiancoding.com/sketch -->
    <title>careerlevel</title>
    <desc>Created with Sketch.</desc>
    <defs></defs>
    <g id="Page-1" stroke="none" stroke-width="1" fill="none" fill-rule="evenodd">
        <g id="Career-Level" transform="translate(0.000000, -2.000000)">
            <g id="careerlevel">
                <g id="Group-17">
                    <rect id="Rectangle-14-Copy-2" x="0" y="0" width="20" height="20"></rect>
                    <path d="M20,7.5 L20,12.5 L20,16.5 C20,17.0522847 19.5522847,17.5 19,17.5 L1,17.5 C0.44771525,17.5 6.76353751e-17,17.0522847 0,16.5 L0,13.5 C-6.76353751e-17,12.9477153 0.44771525,12.5 1,12.5 L6.66666667,12.5 L6.66666667,8.5 C6.66666667,7.94771525 7.11438192,7.5 7.66666667,7.5 L13.3333333,7.5 L13.3333333,3.5 C13.3333333,2.94771525 13.7810486,2.5 14.3333333,2.5 L19,2.5 C19.5522847,2.5 20,2.94771525 20,3.5 L20,7.5 Z" id="Combined-Shape" fill="currentColor"></path>
                </g>
            </g>
        </g>
    </g>
</svg>