<svg xmlns="http://www.w3.org/2000/svg" viewBox="0 0 32 32"><path d="M24.533 17.067c0 4.8 4.133 6.4 4.133 6.533s-0.667 2.267-2.133 4.533c-1.333 2-2.667 3.867-4.8 4-2.133 0-2.8-1.333-5.2-1.333s-3.067 1.2-5.067 1.333c-2 0.133-3.6-2.133-4.933-4-2.667-4-4.667-11.2-2-16.133 1.333-2.4 3.733-4 6.4-4 2 0 3.867 1.333 5.2 1.333 1.2 0 3.6-1.733 6-1.467 1.067 0 3.867 0.4 5.733 3.2-0.133 0-3.467 1.867-3.333 6zM20.533 5.067c-1.067 1.333-2.933 2.4-4.667 2.267-0.267-1.867 0.667-3.733 1.6-4.933 1.2-1.333 3.2-2.4 4.667-2.4 0.267 1.867-0.533 3.733-1.6 5.067z"></path></svg>
