<svg xmlns="http://www.w3.org/2000/svg" viewBox="0 0 24 24"><path fill="currentColor" d="M7.4 10.1H0V5.4c0-.4.3-.8.8-.8h6c.4 0 .8-.4.8-.8V2.2c0-.4.3-.8.8-.8h7.5c.4 0 .8.4.8.8v1.6c0 .4.3.8.8.8h6c.2 0 .5.4.5.8v4.7h-6.9c-1.1-1.5-2.9-2.5-4.9-2.5-1.9.1-3.7 1-4.8 2.5zm-1 2.6c-.1.3-.1.7-.1 1 0 3.3 2.7 6 6 6s6-2.7 6-6c0-.4 0-.7-.1-1H24v9.1c0 .4-.3.8-.8.8H.8c-.4 0-.8-.4-.8-.8v-9.1h6.4zm3.2-8.5h4.7c.4 0 .8-.3.8-.8 0-.4-.4-.8-.8-.8H9.6c-.5.1-.8.4-.8.8s.3.8.8.8zm3.6 9.1l1.3 1.3c.3.3.3.9 0 1.2-.3.3-.9.3-1.2 0l-1.5-1.5c-.2-.2-.3-.5-.2-.8V10c0-.5.4-.9.9-.9s.9.4.9.9v3.3c-.2-.1-.2-.1-.2 0z"/></svg>