<?xml version="1.0" encoding="UTF-8"?>
<svg width="20px" height="18px" viewBox="0 0 20 18" version="1.1" xmlns="http://www.w3.org/2000/svg" xmlns:xlink="http://www.w3.org/1999/xlink">
    <!-- Generator: Sketch 50.2 (55047) - http://www.bohemiancoding.com/sketch -->
    <title>employment-type</title>
    <desc>Created with Sketch.</desc>
    <defs></defs>
    <g id="Page-1" stroke="none" stroke-width="1" fill="none" fill-rule="evenodd">
        <g id="Employment-Type" transform="translate(0.000000, -2.000000)" fill="currentColor">
            <g id="employment-type">
                <g id="Group" transform="translate(0.000000, 2.500000)">
                    <path d="M6.14239465,7.20963565 L0,7.20963565 L0,3.28125 C0,2.919 0.278248291,2.625 0.621089935,2.625 L5.58980942,2.625 C5.93265106,2.625 6.21089935,2.331 6.21089935,1.96875 L6.21089935,0.65625 C6.21089935,0.294 6.48914764,0 6.83198929,0 L13.0428886,0 C13.3857303,0 13.6639786,0.294 13.6639786,0.65625 L13.6639786,1.96875 C13.6639786,2.331 13.9422269,2.625 14.2850685,2.625 L19.253788,2.625 C19.5966296,2.625 19.8748779,2.919 19.8748779,3.28125 L19.8748779,7.20963565 L14.1811656,7.20963565 C13.2777735,5.96118409 11.8139461,5.14973975 10.1617801,5.14973975 C8.50961417,5.14973975 7.04578671,5.96118409 6.14239465,7.20963565 Z M5.26569416,9.29296898 C5.21792389,9.57135424 5.19302957,9.85762152 5.19302957,10.1497397 C5.19302957,12.9111635 7.41761496,15.1497397 10.1617801,15.1497397 C12.9059453,15.1497397 15.1305306,12.9111635 15.1305306,10.1497397 C15.1305306,9.85762152 15.1056363,9.57135424 15.0578661,9.29296898 L19.8748779,9.29296898 L19.8748779,16.84375 C19.8748779,17.206 19.5966296,17.5 19.253788,17.5 L0.621089935,17.5 C0.278248291,17.5 2.11830576e-13,17.206 2.11830576e-13,16.84375 L9.38961028e-14,9.29296898 L5.26569416,9.29296898 Z M7.9193701,2.27994795 L11.8141423,2.27994795 C12.1724613,2.27994795 12.463271,1.99994795 12.463271,1.65494795 C12.463271,1.30994795 12.1724613,1.02994795 11.8141423,1.02994795 L7.9193701,1.02994795 C7.56105106,1.02994795 7.2702414,1.30994795 7.2702414,1.65494795 C7.2702414,1.99994795 7.56105106,2.27994795 7.9193701,2.27994795 Z" id="Combined-Shape"></path>
                    <path d="M10.9684021,9.79250359 L12.0476819,10.8717834 C12.3312949,11.1553964 12.3312949,11.6152239 12.0476819,11.8988369 C11.7640689,12.18245 11.3042413,12.18245 11.0206283,11.8988369 L9.73893551,10.6171441 C9.5587442,10.4369528 9.49303603,10.1856308 9.541811,9.95356275 C9.52532139,9.89279983 9.51652184,9.82887216 9.51652184,9.76288925 L9.51652184,7.01554667 C9.51652184,6.61445729 9.84166902,6.28931011 10.2427584,6.28931011 C10.6438478,6.28931011 10.9689949,6.61445729 10.9689949,7.01554667 L10.9689949,9.76288925 C10.9689949,9.7728084 10.9687961,9.7826811 10.9684021,9.79250359 Z" id="Combined-Shape"></path>
                </g>
            </g>
        </g>
    </g>
</svg>