<?xml version="1.0" encoding="UTF-8"?>
<svg width="20px" height="20px" viewBox="0 0 20 20" version="1.1" xmlns="http://www.w3.org/2000/svg" xmlns:xlink="http://www.w3.org/1999/xlink">
    <!-- Generator: Sketch 50.2 (55047) - http://www.bohemiancoding.com/sketch -->
    <title>icon-recent</title>
    <desc>Created with Sketch.</desc>
    <defs></defs>
    <g id="Page-1" stroke="none" stroke-width="1" fill="none" fill-rule="evenodd">
        <g id="Process-Time" fill="currentColor" fill-rule="nonzero">
            <g id="Recent">
                <path d="M10,0 C4.4886129,0 0,4.48864299 0,10.0000048 C0,15.5113248 4.4886129,20 10,20 C15.5113871,20 20.0000006,15.5113248 20.0000006,10.0000048 C20.0000006,4.48864299 15.5113871,0 10,0 Z M10,1.93548293 C14.4653548,1.93548293 18.0645161,5.53464248 18.0645161,10.0000048 C18.0645161,14.465293 14.4653548,18.0645171 10,18.0645171 C5.53464516,18.0645171 1.93548387,14.465293 1.93548387,10.0000048 C1.93548387,5.53464248 5.53464516,1.93548293 10,1.93548293 Z M10,3.54838538 C9.46554839,3.54838538 9.03225806,3.98167549 9.03225806,4.51612685 L9.03225806,10.0000048 C9.03225806,10.2672305 9.1393871,10.5103594 9.31451613,10.6854884 L12.7419355,14.1028416 C13.1198484,14.4807446 13.7248903,14.4807769 14.1028226,14.1028416 C14.4807419,13.7249063 14.4807355,13.119842 14.1028226,12.741939 L10.9677419,9.59677923 L10.9677419,4.51612685 C10.9677419,3.98167549 10.5344839,3.54838538 10,3.54838538 Z" id="Shape"></path>
            </g>
        </g>
    </g>
</svg>