<svg xmlns="http://www.w3.org/2000/svg" viewBox="0 0 24 24"><path fill="currentColor" d="M19 23.4c-.1 0-.3 0-.4-.1L12 19.9l-6.5 3.4c-.3.2-.6.1-.9-.1-.3-.2-.4-.5-.3-.8l1.2-7.2-5.2-5.1c-.3-.2-.4-.6-.3-.9.1-.3.4-.5.7-.6l7.3-1L11.2 1c.3-.6 1.3-.6 1.6 0L16 7.6l7.2 1.1c.3 0 .6.3.7.6.1.3 0 .7-.2.9l-5.2 5.1 1.2 7.2c.1.3-.1.7-.3.8-.1.1-.2.1-.4.1zM2.7 10.1L7 14.3c.2.2.3.5.2.8l-1 5.9 5.3-2.8c.3-.1.6-.1.8 0l5.3 2.8-1-5.9c0-.3 0-.6.3-.8l4.3-4.2-6-.9c-.3 0-.5-.2-.7-.5L12 3.3 9.3 8.7c-.1.3-.3.5-.6.5l-6 .9z"/></svg>