<svg xmlns="http://www.w3.org/2000/svg" viewBox="0 0 24 24"><path fill="currentColor" d="M11.6 17.7v1.8H13v-1.8c.3 0 .6-.1.9-.2.5-.1 1-.3 1.4-.6.4-.3.8-.7 1-1.1.3-.5.4-1 .4-1.6 0-.3 0-.6-.1-.9-.1-.3-.2-.6-.4-.8-.2-.3-.4-.5-.7-.7-.3-.2-.6-.4-1-.5-.2-.1-.5-.1-.7-.2-.8-.2-1.7-.4-2.5-.7-.4-.1-.7-.3-1-.5-.3-.2-.4-.5-.4-.9 0-.3.1-.5.2-.7.1-.2.3-.3.5-.5.2-.1.4-.2.7-.2.2 0 .5-.1.7-.1.7 0 1.3.1 1.7.5.4.3.7 1.5.7 1.5h2c0-.6-.1-1.1-.3-1.6-.2-.4-.5-.8-.9-1.1-.4-.3-.9-.5-1.4-.7-.3-.1-.6-.1-.8-.2V4.5h-1.4v1.4c-.3 0-.7.1-1 .2-.5.1-.9.3-1.3.6s-.7.6-.9 1c-.4.4-.5.9-.5 1.5 0 .3 0 .6.1.9.1.3.2.6.4.8.2.3.4.5.8.7.3.2.7.4 1.2.5.8.2 1.4.4 2 .5.5.1 1 .3 1.4.4.2.1.4.2.6.4.2.2.3.5.3 1 0 .2 0 .4-.1.6-.1.2-.2.4-.4.5-.2.2-.5.3-.7.4-.3.1-.7.1-1.1.1-.4 0-.8 0-1.1-.1-.3-.1-.6-.2-.9-.4-.3-.2-.5-.5-.6-.8-.2-.3-.2-.7-.2-1.1h-2c0 .7.1 1.3.4 1.8.3.5.6.9 1 1.3.4.3.9.6 1.5.7.3.2.7.3 1.1.3zM12 24C5.4 24 0 18.6 0 12S5.4 0 12 0s12 5.4 12 12-5.4 12-12 12z"/></svg>