<?xml version="1.0" encoding="UTF-8"?>
<svg width="20px" height="19px" viewBox="0 0 20 19" version="1.1" xmlns="http://www.w3.org/2000/svg" xmlns:xlink="http://www.w3.org/1999/xlink">
    <!-- Generator: Sketch 50.2 (55047) - http://www.bohemiancoding.com/sketch -->
    <title>Dress Code</title>
    <desc>Created with Sketch.</desc>
    <defs></defs>
    <g id="Page-1" stroke="none" stroke-width="1" fill="none" fill-rule="evenodd">
        <g id="Dress-Code" transform="translate(0.000000, -1.000000)">
            <g>
                <rect id="Rectangle-17" x="0" y="0" width="20" height="20"></rect>
                <path d="M4.58342458,1.34401495 L0.138910615,5.04767231 C0.0556893909,5.11462472 0.00312861746,5.21849482 0,5.32549354 L0,9.88129243 C6.76353751e-17,10.4335772 0.44771525,10.8812924 1,10.8812924 L2.59237243,10.8812924 C2.72314864,10.8831696 2.85142196,10.8087085 2.9164972,10.6960783 L3.70365735,9.12175797 L3.70365735,18.7703204 C3.70365735,19.3226051 4.1513726,19.7703204 4.70365735,19.7703204 L15.2963426,19.7703204 C15.8486274,19.7703204 16.2963426,19.3226051 16.2963426,18.7703204 L16.2963426,9.12175797 L17.0835028,10.6960783 C17.1492038,10.8087085 17.2774771,10.8825439 17.4082533,10.8812924 L19,10.8812924 C19.5522847,10.8812924 20,10.4335772 20,9.88129243 L20,5.32549354 C19.9974971,5.21849482 19.9449363,5.11462472 19.8610894,5.04767231 L15.4172011,1.34401495 C15.3533773,1.28769984 15.2701561,1.2545365 15.1856834,1.25140788 L12.2460345,1.25140788 C12.222257,1.24953071 12.1991052,1.24953071 12.1759534,1.25140788 C12.0889779,1.26079373 12.0051309,1.3027172 11.9444358,1.36716672 C11.8881206,1.43099052 11.855583,1.51358602 11.8524544,1.59868442 C11.8520373,1.6036902 11.8520373,1.62684197 11.8524544,1.66813972 C11.8055251,2.70558928 10.993336,3.51965554 10.0003129,3.51965554 C8.97037199,3.51965554 8.14817132,2.69808059 8.14817132,1.66813972 C8.14316554,1.50920596 8.0249038,1.36028377 7.87035009,1.32086319 C7.81028064,1.30709727 7.77148578,1.29896286 7.73143948,1.29771142 C7.72643369,1.29771142 6.75426796,1.2822769 4.81494228,1.25140788 C4.71482652,1.25954228 4.64099115,1.2920799 4.58342458,1.34401495 Z" id="Fill-1" fill="currentColor"></path>
            </g>
        </g>
    </g>
</svg>