<svg xmlns="http://www.w3.org/2000/svg" viewBox="0 0 24 24"><path fill="currentColor" d="M2.5 1c0-.6.5-1 1-1h17c.5 0 1 .4 1 1v22c0 .6-.5 1-1 1h-17c-.5 0-1-.4-1-1V1zm1.6 8.6v12.8h15.8V9.6H4.1zm5.4-4.3c.8 0 1.5-.6 1.5-1.4 0-.8-.7-1.5-1.5-1.5S8 3 8 3.8c0 .8.7 1.5 1.5 1.5zM4.9 2.4v2.9l2.9-2.9H4.9zm1.6 10.4c0-.4.3-.8.8-.8h9.5c.4 0 .8.4.8.8s-.4.8-.8.8H7.3c-.5 0-.8-.4-.8-.8zm0 3.2c0-.4.4-.8.8-.8h9.5c.4 0 .8.4.8.8s-.4.8-.8.8H7.3c-.5 0-.8-.4-.8-.8zm0 3.2c0-.4.4-.8.8-.8h9.5c.4 0 .8.4.8.8s-.4.8-.8.8H7.3c-.5 0-.8-.4-.8-.8z"/></svg>