<?xml version="1.0" encoding="UTF-8"?>
<svg width="19px" height="20px" viewBox="0 0 19 20" version="1.1" xmlns="http://www.w3.org/2000/svg" xmlns:xlink="http://www.w3.org/1999/xlink">
    <!-- Generator: Sketch 50.2 (55047) - http://www.bohemiancoding.com/sketch -->
    <title>Benefits</title>
    <desc>Created with Sketch.</desc>
    <defs></defs>
    <g id="Page-1" stroke="none" stroke-width="1" fill="none" fill-rule="evenodd">
        <g id="Benefits" transform="translate(-1.000000, 0.000000)">
            <g>
                <rect id="Rectangle-13" x="0" y="0" width="20" height="20"></rect>
                <path d="M16.994234,10 C16.677984,10 16.374234,10.0825 16.116734,10.24 L12.010095,13.3937067 L11.112595,13.3937067 L11.112595,12.1437067 C11.112595,11.4524567 10.552595,10.8937067 9.862595,10.8937067 L7.5,10.8937067 C6.81,10.8937067 6.25,11.4524567 6.25,12.1437067 L6.25,18.3187067 C6.25,19.0099567 6.81,19.5687067 7.5,19.5687067 L12.362345,19.5687067 C12.604845,19.5687067 12.844845,19.4974567 13.048595,19.3649567 L19.2903192,14.1988317 C19.7640692,13.8875817 20.1753192,13.2325817 19.9053192,12.3288317 C19.5678192,11.2050817 18.424234,10 16.994234,10 Z" id="Fill-3" fill="currentColor"></path>
                <rect id="Rectangle-12" fill="currentColor" x="1.25" y="11.25" width="3.75" height="8.75" rx="1"></rect>
                <g id="Group" transform="translate(10.000000, 5.000000)" stroke="currentColor" stroke-linecap="round">
                    <path d="M3.125,5.625 L3.125,0.625" id="Line-3"></path>
                    <path d="M5.625,3.125 L0.625,3.125" id="Line-3-Copy"></path>
                </g>
                <g id="Group-Copy" transform="translate(6.250000, 0.000000)" stroke="currentColor" stroke-linecap="round">
                    <path d="M3.125,5.625 L3.125,0.625" id="Line-3"></path>
                    <path d="M5.625,3.125 L0.625,3.125" id="Line-3-Copy"></path>
                </g>
            </g>
        </g>
    </g>
</svg>