<svg xmlns="http://www.w3.org/2000/svg" viewBox="0 0 24 24"><path fill="currentColor" d="M22.5 17L15 23.2c-.2.2-.5.2-.8.2h-6c-.8 0-1.5-.7-1.5-1.5v-7.5c0-.8.7-1.5 1.5-1.5h2.9c.8 0 1.5.7 1.5 1.5V16h1.1l5-3.8c.3-.2.7-.3 1.1-.3 1.7 0 3.1 1.5 3.5 2.8.2 1.1-.3 1.9-.8 2.3zM4 13.4H1.9c-.7 0-1.2.5-1.2 1.2v8.2c0 .7.5 1.2 1.2 1.2H4c.7 0 1.2-.5 1.2-1.2v-8.2c0-.6-.5-1.2-1.2-1.2zm8-4.3c-.3 0-.6.3-.6.6s.3.6.6.6h2.4v2.4c0 .3.3.6.6.6s.6-.3.6-.6v-2.4H18c.3 0 .6-.3.6-.6s-.3-.6-.6-.6h-2.4V6.6c0-.3-.2-.6-.6-.6s-.6.3-.6.6V9H12zM7.5 4.2h2.4v2.4c0 .3.3.6.6.6s.6-.3.6-.6V4.2h2.4c.3 0 .6-.3.6-.6s-.3-.6-.6-.6h-2.4V.6c0-.3-.3-.6-.6-.6s-.6.3-.6.6V3H7.5c-.4 0-.6.3-.6.6 0 .4.2.6.6.6z"/></svg>