<svg xmlns="http://www.w3.org/2000/svg" viewBox="0 0 24 24"><path fill="currentColor" d="M23 8.2V2.1C23 1 22 0 20.9 0s-2.3 1-2.3 2.1v6.1c.7-.3 1.5-.5 2.1-.5.8-.1 1.7.2 2.3.5zm0 7.6v6.1c0 1.2-1 2.1-2.1 2.1s-2.3-1-2.3-2.1v-6.1c.7.3 1.5.5 2.1.5.8.1 1.7-.2 2.3-.5zM5.4 12.5V2.1C5.4 1 4.4 0 3.3 0 2 0 1 1 1 2.1v10.4c.6-.3 1.5-.5 2.3-.5.6 0 1.5.2 2.1.5zm0 7.7v1.6c0 1.2-1 2.1-2.1 2.1-1.2 0-2.1-1-2.1-2.1v-1.6c.7.3 1.5.5 2.1.5s1.5-.2 2.1-.5zm8.7-16.4V2.1C14.1 1 13.2 0 12 0c-1.2 0-2.1 1-2.1 2.1v1.6c.7-.3 1.3-.5 2.1-.5.8.1 1.5.3 2.1.6zm0 7.7v10.4c0 1.2-1 2.1-2.1 2.1-1.2 0-2.1-1-2.1-2.1V11.5c.7.3 1.3.5 2.1.5s1.5-.2 2.1-.5zM3.3 19.7c-1.8 0-3.3-1.5-3.3-3.3 0-1.8 1.5-3.3 3.3-3.3s3.3 1.5 3.3 3.3c0 1.8-1.5 3.3-3.3 3.3zm8.7-8.9c-1.8 0-3.3-1.5-3.3-3.3s1.5-3.3 3.3-3.3c1.8 0 3.3 1.5 3.3 3.3s-1.5 3.3-3.3 3.3zm8.7 4.5c-1.8 0-3.3-1.5-3.3-3.3 0-1.8 1.5-3.3 3.3-3.3 1.8 0 3.3 1.5 3.3 3.3 0 1.8-1.3 3.3-3.3 3.3z"/></svg>