<svg xmlns="http://www.w3.org/2000/svg" viewBox="0 0 200 36">
  <defs>
    <radialGradient cx="35.127%" cy="17.386%" fx="35.127%" fy="17.386%" r="62.585%" gradientTransform="matrix(1 0 0 .91268 0 .015)" id="a">
      <stop stop-color="#FFF" offset="0%"/>
      <stop stop-color="#1C3F94" offset="100%"/>
    </radialGradient>
  </defs>
  <g fill-rule="nonzero" fill="none">
    <g fill="#1C3F94">
      <path d="M10.096.836h5.981v10.482c0 2.187-.193 3.859-.579 5.016-.385 1.158-1.157 2.123-2.379 2.959-1.158.771-2.701 1.221-4.502 1.221-1.929 0-3.472-.257-4.566-.771-1.093-.515-1.929-1.286-2.508-2.315-.578-1.03-.9-2.251-1.029-3.795l5.724-.771c0 .836.064 1.479.257 1.865.129.386.386.771.708 1.029.192.193.514.257.964.257.643 0 1.158-.257 1.48-.708.32-.514.45-1.35.45-2.508V.836zM34.47.836h5.401v6.688c.515-.579 1.158-.965 1.801-1.286.707-.257 1.415-.45 2.25-.45 1.673 0 3.088.643 4.245 1.865 1.093 1.222 1.672 2.958 1.672 5.273 0 1.543-.257 2.894-.771 4.051-.515 1.158-1.222 1.994-2.123 2.637-.9.579-1.865.836-2.958.836-.964 0-1.8-.193-2.572-.579-.579-.321-1.222-.9-1.93-1.8v2.058H34.47V.836zm5.337 12.283c0 1.222.257 2.058.643 2.637.45.514 1.03.836 1.736.836.644 0 1.158-.258 1.608-.772.45-.515.643-1.415.643-2.701 0-1.093-.193-1.93-.643-2.444a1.918 1.918 0 0 0-1.543-.771c-.708 0-1.35.257-1.8.836-.387.45-.644 1.286-.644 2.379zM50.354 13.762l5.659-.321c.128.9.386 1.607.772 2.122.643.771 1.479 1.157 2.636 1.157.836 0 1.48-.193 1.994-.579.45-.385.707-.836.707-1.414 0-.515-.193-.965-.643-1.35-.45-.387-1.479-.772-3.022-1.094-2.637-.579-4.502-1.35-5.595-2.315-1.158-.965-1.672-2.251-1.672-3.73 0-1.029.257-1.93.836-2.83.579-.9 1.479-1.607 2.572-2.058C55.756.836 57.363.58 59.357.58c2.444 0 4.373.45 5.66 1.35 1.285.9 2.057 2.38 2.314 4.373l-5.595.322c-.128-.9-.45-1.48-.964-1.865-.45-.386-1.158-.579-1.994-.579-.707 0-1.222.129-1.543.45-.386.322-.515.643-.515 1.093 0 .322.129.58.45.836.258.258.965.515 1.994.708 2.637.579 4.502 1.157 5.595 1.736 1.157.579 1.93 1.286 2.444 2.122.514.836.771 1.801.771 2.83 0 1.222-.321 2.38-1.029 3.408a6.596 6.596 0 0 1-2.894 2.38c-1.221.514-2.765.771-4.63.771-3.28 0-5.53-.643-6.816-1.864-1.351-1.287-2.058-2.959-2.251-4.888zM75.627.836v5.338h2.958v3.922h-2.958v4.952c0 .579.064.965.193 1.158.193.321.45.45.9.45.386 0 .965-.129 1.672-.322l.386 3.73c-1.35.258-2.572.45-3.73.45-1.35 0-2.315-.192-2.958-.514-.643-.322-1.093-.836-1.415-1.543-.321-.708-.45-1.865-.45-3.409v-4.952h-1.993V6.174h1.993V3.6L75.627.836zM79.871 6.174h5.016v2.315c.515-.965.965-1.672 1.48-2.058.514-.386 1.157-.579 1.929-.579s1.672.257 2.572.772l-1.672 3.794c-.643-.257-1.157-.386-1.479-.386-.707 0-1.222.322-1.608.9-.578.836-.836 2.38-.836 4.566v4.695h-5.402V6.173zM106.367 14.47h-10.74c.064.835.322 1.479.707 1.929.515.578 1.222.9 2.058.9.515 0 1.03-.129 1.48-.386.257-.193.578-.45.9-.9l5.273.514c-.772 1.415-1.8 2.444-2.894 3.023-1.157.643-2.765.9-4.952.9-1.865 0-3.28-.257-4.373-.772-1.093-.514-1.929-1.35-2.636-2.508-.708-1.157-1.03-2.508-1.03-4.051 0-2.187.708-3.923 2.059-5.338 1.414-1.35 3.344-2.058 5.787-2.058 1.994 0 3.602.322 4.76.9a5.816 5.816 0 0 1 2.636 2.637c.579 1.158.9 2.637.9 4.502v.707h.065zm-5.467-2.573c-.128-1.029-.386-1.8-.836-2.25-.45-.45-1.029-.644-1.8-.644-.836 0-1.544.322-2.058 1.03-.322.45-.515 1.028-.643 1.864h5.337zM123.023 14.47h-10.74c.064.835.322 1.479.707 1.929.515.578 1.222.9 2.058.9.515 0 1.03-.129 1.48-.386a5.67 5.67 0 0 0 .964-.9l5.273.514c-.836 1.415-1.8 2.444-2.894 3.023-1.157.643-2.765.9-4.887.9-1.865 0-3.344-.257-4.373-.772-1.093-.514-1.93-1.35-2.637-2.508-.707-1.157-1.029-2.508-1.029-4.051 0-2.187.708-3.923 2.123-5.338 1.414-1.35 3.344-2.058 5.787-2.058 1.994 0 3.602.322 4.76.9a5.816 5.816 0 0 1 2.636 2.637c.579 1.158.9 2.637.9 4.502v.707h-.128zm-5.467-2.573c-.064-1.029-.386-1.8-.836-2.25-.45-.45-1.029-.644-1.8-.644-.836 0-1.544.322-2.058 1.03-.322.45-.515 1.028-.643 1.864h5.337zM130.61.836v5.338h2.96v3.922h-2.96v4.952c0 .579.065.965.194 1.158.193.321.45.45.9.45.386 0 .965-.129 1.672-.322l.386 3.73c-1.35.258-2.572.45-3.73.45-1.35 0-2.315-.192-2.958-.514-.643-.322-1.093-.836-1.415-1.543-.321-.708-.45-1.865-.45-3.409v-4.952h-1.994V6.174h1.994V3.6l5.402-2.765zM152.926 14.92l5.08.578c-.257 1.094-.771 1.994-1.35 2.766-.643.771-1.48 1.35-2.444 1.8-.964.45-2.25.643-3.794.643-1.48 0-2.701-.128-3.73-.385a5.944 5.944 0 0 1-2.508-1.35c-.707-.644-1.286-1.351-1.672-2.187-.386-.836-.579-1.93-.579-3.344 0-1.415.257-2.637.772-3.602.386-.707.836-1.35 1.48-1.865a6.43 6.43 0 0 1 1.928-1.222c1.03-.45 2.38-.643 3.987-.643 2.251 0 3.988.386 5.21 1.222 1.221.836 2.057 1.994 2.508 3.601l-5.017.644a2.217 2.217 0 0 0-.9-1.35c-.386-.322-.965-.451-1.672-.451-.9 0-1.608.321-2.186.965-.515.643-.836 1.607-.836 2.893 0 1.158.257 1.994.836 2.637.514.579 1.221.9 2.057.9.708 0 1.287-.193 1.737-.514.514-.45.9-1.029 1.093-1.736zM158.457 13.44c0-2.122.707-3.922 2.186-5.273 1.415-1.415 3.408-2.058 5.852-2.058 2.765 0 4.888.836 6.367 2.444 1.157 1.286 1.736 2.894 1.736 4.823 0 2.122-.707 3.923-2.122 5.274-1.415 1.35-3.408 2.057-5.917 2.057-2.25 0-4.051-.578-5.466-1.736-1.736-1.415-2.636-3.28-2.636-5.53zm5.402-.064c0 1.222.257 2.187.771 2.765.515.58 1.158.9 1.93.9.771 0 1.414-.32 1.864-.9.515-.578.772-1.543.772-2.83 0-1.221-.257-2.121-.772-2.7-.514-.579-1.093-.9-1.865-.9-.771 0-1.414.321-1.929.9-.514.643-.771 1.543-.771 2.765zM175.82 6.367h5.016v2.057c.707-.836 1.415-1.479 2.187-1.8.707-.386 1.607-.515 2.636-.515 1.093 0 1.994.193 2.637.58.643.385 1.157.964 1.608 1.735.836-.9 1.607-1.543 2.315-1.865.707-.321 1.543-.514 2.572-.514 1.48 0 2.701.45 3.537 1.35.836.9 1.286 2.251 1.286 4.18v8.81h-5.402v-7.973c0-.644-.128-1.094-.386-1.415-.385-.45-.836-.708-1.35-.708-.643 0-1.158.258-1.544.708-.385.45-.578 1.157-.578 2.186v7.203h-5.402v-7.717c0-.643-.065-1.03-.129-1.222-.128-.322-.321-.643-.579-.836a1.58 1.58 0 0 0-.964-.322c-.643 0-1.094.258-1.544.708-.386.45-.578 1.222-.578 2.315v7.138h-5.338V6.367zM135.691 17.814c0-1.415 1.158-2.573 2.508-2.573 1.415 0 2.508 1.158 2.508 2.573 0 1.414-1.157 2.572-2.508 2.572-1.35 0-2.508-1.158-2.508-2.572z"/>
    </g>
    <g transform="translate(16.72 3.859)">
      <circle fill="#00A94F" cx="8.296" cy="8.489" r="8.039"/>
      <path d="M10.675 2.701c0-.064 0-.064 0 0-.064 0-.064 0 0 0-.064 0-.064 0 0 0zM5.981.836c0-.064 0-.064 0 0-.065-.064-.065-.064 0 0-.065 0-.065-.064 0 0zm.964-.129c.065.065.065 0 0 0 .065 0 0 0 0 0zm.45-.064c0 .064 0 .064 0 0 .065.129.258 0 .322 0h.193c.257-.064.45-.129.772-.129h.9C9.389.514 9.26.45 9.068.45h-.13c-.385 0-1.221-.064-1.414.064h-.129V.45h-.192.128c0 .129.064.193.064.193zm-.192.129H7.01s.128.064.193 0zM1.222 5.273v.065c0-.065.064-.193.128-.258.065-.193-.064-.385.13-.514v-.064a3.135 3.135 0 0 0-.194.45c-.064.128 0 .257-.064.321zm.321.58c.065-.065.065 0 0 0 .065-.065 0-.065 0 0 0 0 0-.065 0 0zM1.35 7.137c.322.065.322-.257.45-.45 0-.064-.064-.064-.064-.064h-.128l-.065-.065v-.064H1.48c-.129 0-.064-.064-.129-.128h-.064l.064-.258c0-.064 0 0-.064 0v-.064h.064v-.064c0-.129.13-.129.065-.258v.065H1.35v-.129c0 .064-.064.193 0 .257 0 .129-.064.193-.192.193h-.065v-.128H1.03v-.065h.064v-.128h.065c0-.129.064-.193.064-.322h-.064c-.065.065-.065.129-.193.129v.064c0-.128 0-.193.064-.257v.064c.193-.064.129-.321.193-.514l.193-.386c0 .064-.065.129-.065.193s0 .064-.064.128c-.193.386-.321.772-.514 1.158v.579c.064 0 .064-.129.064-.193.193 0 .064.128.129.257 0 .064.193.322.257.386h.128c-.064-.064-.064 0 0 .064zm.193-.45h.193v.064h-.128-.065c-.064-.064 0-.064 0-.064zm-.385-.257c-.065 0-.065-.064-.065-.064v-.13c.065.065.065.065.065.194zm11.06-3.601c0-.065 0-.065 0 0-.064 0-.064-.065 0 0zm.901 12.09l.129-.129a.138.138 0 0 1-.129.129zm1.608-1.544c1.029-1.35 1.672-3.087 1.672-4.887a8.099 8.099 0 0 0-3.28-6.495h-.064l-.065-.065h-.128c-.065 0-.129-.128-.193-.193-.064-.064-.193-.128-.257-.193v.065c-.065-.065-.193-.065-.193-.129s-.065-.064-.065-.129c-.128-.064-.321 0-.386-.128 0 0 0-.064-.064-.064-.064-.065-.128-.065-.193-.065-.064 0-.128-.064-.193-.128h-.064c-.064 0-.064 0-.129-.065a8.096 8.096 0 0 0-.643-.193c.065.065.065.129.065.193.064 0 .128.065.128.065 0 .064 0 .064-.064.064 0 .064.064.064.129.064v.129l.257.257c-.065.064-.129 0-.193.064-.129 0-.579.065-.708 0-.064 0-.514-.064-.643 0-.064 0-.128.129-.193.129h-.192l-.065.064c-.128.065-.257 0-.386 0h-.193c-.128-.064-.321-.128-.385-.193h-.322c-.064 0-.064-.064-.129-.064V1.35c-.128-.064-.257-.128-.385-.128-.129 0-.258.128-.386 0 0-.064.064-.064.128-.129C6.881.965 6.174.9 5.981.965V.9c-.065 0-.129.065-.193 0 0 0 0-.064 0 0a1.212 1.212 0 0 1-.515.129h-.128c-1.286.514-2.444 1.415-3.28 2.444 0 0 .064 0 .064-.065l.065-.064h.064c.064 0 .128 0 .128-.064 0-.065.065-.129.13-.193l.063-.064h.065v.064l-.065.064-.064.064v.065l-.064.064v.064l.064.065v.064h.064l.065.064c.064.065.128-.064.128-.064.065-.064.129-.064.129 0l.064.064c.065 0 .065-.064.065-.128 0 0 0-.065.064-.065s.064.065.064.065h.322v-.129c-.065-.064-.193 0-.257-.064V3.15c0-.064.064-.064.064-.128.128-.065.193-.13.321-.193.065 0 .065-.065.129-.065s.064-.064.129-.064c.064 0 .064-.064.128-.064v-.065c-.064 0-.064 0-.128.065-.065 0-.065.064-.129.064s-.064 0-.129.064c-.064 0-.064 0-.128.065-.065.064-.129.128-.193.128s-.064 0-.129.065l-.064.064H2.83v.064s-.065 0-.065.064c-.064 0-.064 0-.064.065l-.064.064c-.065.064-.065.064-.129.064h-.064v-.064l.064-.064s0-.065.064-.065c0-.064.065-.128.129-.128h.064s.065 0 .065-.064c0 0-.065-.065 0-.065l.064-.064.064-.064c0-.065-.064 0-.064.064 0 0 0 .064-.064.064H2.7v-.064-.064h.193s.064 0 .064-.065c0 0 .065 0 .065-.064s.064.064.064 0v-.064c0-.065.064 0 .064 0h.064v-.065s0 .065.065 0h.386s.064 0 .064-.064h.257v.064l.064-.064h.386s0 .064-.064.064h-.064c-.065.065-.129.065-.129.129.064.064.064 0 .129 0l.064-.064c.064 0 .129-.065.129-.065h.064v.065h.064c-.064 0-.064 0-.128.064 0 0-.065 0 0 0v.064c0 .065-.065.065-.129.065v.064h.129c.064 0 .064.064 0 .064v.193l-.065.064c-.064 0-.064.065-.128.065-.065 0-.065 0-.065-.065v-.064h-.193c-.064 0-.064 0-.064.064v.129s0 .064-.064.064-.064 0-.064.065v.064h.128s0-.064.064-.064l.065.064.064.064c.064 0 .064-.064 0-.064 0 0 .064 0 .064-.064h.129s0-.065.064-.065v.065s0 .064.065.064c.064 0 .064-.129.128-.129l.065-.064.064-.064v.064s-.064 0-.064.064c-.065 0 0 .065-.065 0 0 0 0 .065-.064 0l.064.065h.129v.064h.128s.065 0 0 0l-.064.064s-.064 0-.064.065h.064s.064 0 .064-.065c0 0 .065 0 .065-.064h.321s-.064 0-.064.064h.129s.064 0 .064-.064v-.064h.129c.064 0 .064.064.064.064v.129l.064.064c.064 0 .064-.064.064-.064 0-.065 0-.065.065-.129a.888.888 0 0 1 .193-.257l.128-.129c.065 0 .065-.064.129 0 .064 0 0 .064 0 .129 0 .064-.064.064-.064.128 0 .065 0 .065-.065.129 0 .064-.064.064-.064.129v.257c0 .064-.064.064-.064.064h-.258c-.064 0-.128.064-.128.064-.064.065-.129.065-.129.13 0 .063-.064.063 0 .128v.128c0 .065-.064.065-.064.129v.129c0 .064.064.064.129.064.064 0 0-.064 0-.064 0-.065-.065-.065-.065-.13 0-.063.065-.063.065-.128v-.064-.064c0-.065.064-.065.064-.065l.128-.128c.13-.065.193.064.322.064.064 0 .064-.064.129-.064.064 0 .064-.065.064-.129s0-.064.064-.064c.065 0 .129.064.129.064v.129s-.064.064 0 .064h.128v-.064-.193-.064l-.064-.065h-.064V3.73l.064-.064V3.6v-.064l.064-.064s0-.065.065-.065c0 0 0-.064.064-.064s0 .064 0 .129l-.064.064s0 .064.064.064.064-.064.064-.128c0-.065.065 0 .065 0 .064 0 .064 0 .064-.065l.064.065h.065c.064 0 0 .064 0 .064v.064s.064.065.064 0v-.064-.064-.065s-.064 0-.064-.064l-.065-.064c0-.065 0-.065.065-.065h.128s0 .065.065.065h.064v-.065-.064h.193l.064-.064v.064h.064s.065 0 .065-.064v-.064c0-.065.064-.13.128-.193 0 0 .065 0 .065.064s0 .064-.065.064h.129v.065c.129-.065.193 0 .322.064 0 .064 0 .128.064.193 0 .064-.064.064-.129.128h.129v-.064c.064 0 .064 0 .128.064 0 .065 0-.064.065 0h.321v.065c.065 0 .193 0 .258-.065-.065-.064-.065-.064-.065-.128.065 0 .129 0 .193.064v.129h-.064.128l.065.064c.064 0 .064.064.064.064l.064.065c0 .064 0 .064-.064.064v.386c0 .064.064.064.064.064s.065 0 .065.064v.065l.064.064h.129l.064.064c.064 0 .129 0 .193.065l.064-.065h.129c.128 0 .193.129.257.193 0-.064-.129-.128-.129-.128h.193-.257v-.065h-.064-.065v-.064h-.064-.064-.064-.065-.064-.064v-.064-.065-.064l-.065-.064V4.05v-.064-.064-.064-.065h.065c0-.064-.065-.064-.065-.128 0 0 .129.064.193.064h.257c0-.129-.064-.129-.128-.193v-.064c.064 0 .128 0 .193-.065.064 0 .064 0 .128.065.065 0 .065-.065.129-.065s.129.065.193.065v.064h.129c0 .064-.065.064-.065.129.129 0 .129-.129.193-.193.064 0 .129-.065.257-.065.065.065.258.129.322.193.064 0 .064-.064.064-.128.065 0 .193-.129.322-.065 0-.128-.065-.128-.129-.128a.138.138 0 0 0 .129-.129h.643c0-.064-.064-.064-.064-.128.128 0 .128 0 .257.064 0 0 0 .064.064.064h.129c.064 0 .064.064.128.064v.065c-.064 0-.193-.065-.193 0-.064 0-.064.064-.128.064.064.064.064.064.064.193.129 0 .257.064.322.129v.128c.064.129.128.257.257.322h-.064c0 .064-.065.128 0 .193-.065 0-.065-.065-.065-.065 0 .065.065.065.065.129s-.065.064 0 .064c0 .065.128.129.128.193v-.064c.065.064.129.129.257.193 0 .064 0 .064-.064.064.064.064.257.129.129.257 0 .129.128.386.193.45v.13c-.129-.065-.258-.194-.322-.258-.064 0-.064-.129-.064-.129-.064-.064-.193-.064-.257-.193-.065-.128-.065-.321-.129-.45a.138.138 0 0 0-.129-.128v-.065c-.064-.064-.128 0-.128-.193 0 0-.065 0-.065.065 0 .064.129.193.193.257v.064c-.064 0-.128-.128-.193-.193 0 .193.065.258.065.386h.064v.064s0 .065-.064.065v.128s0 .065-.065.065h-.064c0-.065 0-.065.064-.129-.128 0-.192.064-.257.129h-.064v.064h-.064c-.129 0-.129.064-.193.129 0 .193.064.578-.065.707.129 0 .193 0 .258-.064v.064c0-.064.064-.064.064-.129.193 0 .257.193.321.322.065.064.193.193.193.257v.129c.129.386-.128.707-.193.964-.064 0-.064 0-.128-.064 0 .064 0 .064-.064.129-.065.064-.258.193-.13.321-.063.065-.063.065-.128.065-.064 0-.064.064-.064.128v.065c.129 0 .257.128.386.192.064.065.064.13.064.193 0 .129-.064.129-.064.193-.129 0-.129.065-.257.065v-.193c-.065 0-.065-.065-.129-.065 0-.128-.064-.064 0-.193-.064 0-.129 0-.193.065-.064 0-.064-.193-.064-.193a.584.584 0 0 0-.45.193h-.065c0-.065.065-.193 0-.257l-.128.128c-.065.064-.065.129-.129.193-.064 0-.129.064-.193.064l.064.065h.193c.065 0 .065 0 .065.064.064 0 .128-.064.193-.064h.128c-.064.064-.128.128-.193.128h-.064c-.064.065-.064.193-.129.258 0 .064.129.064.193 0v.192c.129 0 .129.13.193.13 0 0-.064.063-.128.063 0 0 .064.065.128.065 0 .128-.064.128-.064.193h.193v.064h-.065s0 .064.065.064c0 .065-.065.065-.065.065l.065.064c0 .064-.065.064-.129.128v.13l-.064.063v.065h-.064v.064l-.193.257c-.129.129-.322.129-.515.193-.128.064-.193.129-.386.129v.064h-.064v-.064c-.257 0-.386.128-.514.257v.129c0 .064.064.064.128.064 0 .064.064.064.064.129.065.064.13 0 .193.064.065 0 .129.128.129.193 0 .321-.129.45-.322.514-.064 0-.064 0-.128.065-.064 0-.064.064-.129.128-.064 0-.064 0-.128.065v-.13c0-.128-.193-.128-.258-.192l-.064-.129h-.257v-.128c-.064 0-.129 0-.129.064 0 .193-.064.322-.064.515h.129c.064.064.064.064.064.128.193.064.257.064.386.193 0 .064.064.193 0 .257 0 .129.128.129.193.193v.065c-.193 0-.515-.193-.58-.322-.063-.129 0-.322-.192-.386H8.81c0-.064 0-.257.065-.321v-.258h-.129c0-.193-.064-.386-.129-.514-.064.064-.257.257-.45.128 0 0-.128-.321-.128-.45h-.065s-.064 0-.064-.064-.064-.193-.064-.257c0 0-.065 0-.129-.065-.129 0-.129.065-.193.065-.129.064-.321 0-.45.064 0 .064 0 .064.064.064-.064.065-.257.129-.321.193-.129.065-.258.193-.386.258h-.129l-.064.064h-.193v.128c0 .13 0 .193-.129.258v.257h-.064c0 .064-.064.064-.129.129-.064.064-.128.064-.192.128-.258 0-.258-.193-.322-.45 0-.064-.064-.064-.129-.129-.064-.064-.064-.128-.064-.257-.064-.128-.129-.193-.193-.386 0-.064-.064-.386 0-.45v-.064c-.064.064-.128.128-.257.128a.888.888 0 0 1-.193-.257h.193s-.129 0-.129-.064v-.064c-.128-.129-.257-.193-.321-.322-.386 0-.772-.129-.965-.257-.064-.064-.064-.129-.128-.193-.065 0-.13 0-.193-.064l-.322-.322c-.129-.193.064-.386-.322-.386 0 .065.065.129.065.129v.193c0 .064.064.128.128.193 0 .064-.064.128 0 .193 0 0 0-.065.065-.129h.064v.129c.064.193.386.128.515.064 0 .064.064.129.064.193s.064.064.128.064c.065.064.065.193.13.193-.065.129-.13.129-.258.193 0 .064 0 .129-.064.129a.488.488 0 0 1-.258.128h-.193c-.064 0-.064.129-.128.129-.065 0-.45.064-.515.064 0 0-.064-.064-.128-.064h-.193-.065c0-.129-.064-.193-.064-.386v-.386c-.064-.128-.129-.257-.129-.386 0-.064.065-.128 0-.128 0-.065-.064-.129-.064-.129v-.257c-.064-.129-.064-.322-.064-.515-.064 0-.064-.193-.064-.257-.065.064 0 .386 0 .45v.386c0 .129.064.257.064.386s-.064.257 0 .322c0 .064.064.128.128.128v.386s.13.064.13.129c.063.064.063.193.128.257 0 .064.064.128 0 .128.064.065.128.13.128.193.129 0 .515.129.58.065h.128a.491.491 0 0 1-.129.321c0 .065-.064.065-.129.129 0 0-.128.193-.128.257-.129 0-.193.129-.257.193-.065 0-.129 0-.193.064-.065 0-.193.193-.258.193-.064.065 0 .129-.064.193 0 .129.064.129.129.193-.065.129.193.515.257.643 0 .065 0 .193.064.257 0 .13-.128.13-.257.193a7.97 7.97 0 0 0 6.753 3.73c1.8 0 3.472-.579 4.823-1.607h-.129s0-.065.064-.13l-.064-.063c0-.065 0-.065.064-.065-.064 0-.193.129-.193.193v-.064c-.192-.064-.257 0-.385.064-.129 0-.258.065-.386.065l-.386.192c-.129 0-.257.065-.322.065-.064 0-.064.064-.128.064-.065.064-.386.129-.45 0 0-.064.064-.064.064-.064 0-.129 0-.45-.064-.515 0-.064.064 0 .128 0h.129c-.065 0-.129-.064-.129-.064 0-.064 0-.129.064-.129.065-.064 0 0 .065 0a.888.888 0 0 1 .257-.193c.322-.128.836-.128.9-.514h.065c.064 0 .064-.129.128-.129.065 0 .193-.064.193-.064v-.064c.065-.065.065-.129.129-.129h.128c0 .064 0 .064-.064.064.064 0 .193-.128.257-.064v-.064c0-.064.129-.257.193-.257.065-.065.129-.065.129-.065.064-.064.064-.128.129-.193h.064c.128 0 .193-.064.257-.064h.064c-.064.129-.128.257-.257.322.064.064.193 0 .322.064.257 0 .257-.45.386-.643.064-.064.128-.129.128-.193v.321h.064v.386h.129c0 .065.064.193.064.258l.065-.9zM5.595 1.543s0-.064 0 0c.064-.064.128-.128.193-.128.128-.065.193-.065.321-.129l.065-.064c.064 0 .193-.064.257 0 .064 0 .128.064.193.064 0 .064 0 0-.065.064 0 0 0 .065-.064.065h-.064-.064s-.065 0 0 0l-.065.064c-.064 0-.064.064-.128.129l-.065.064h-.064c-.064 0 0-.064 0-.064h-.064c-.065 0-.065.064-.129.064-.193-.129-.257-.129-.257-.129zm1.029.643h-.065-.064c-.064 0-.128.065-.193.065-.064 0-.128 0-.128.064-.065 0-.065.064-.129.064s-.064.065-.129.065l-.128.128v.193l-.065-.064v-.064l.065-.065.128-.128.065-.065s.064 0 .064-.064l.064-.064h.129c.064 0 .129 0 .257-.065h.129c.064 0 .064 0 0 0zm.128-.836s.065 0 0 0zm.515.13s-.064 0-.064.063c-.065.065-.129.065-.193.065H6.88v-.065l.064-.064h.129v.064c-.064-.064.129-.128.193-.064zm.579.514c-.065.064-.065.064 0 0-.065.064-.065.064-.129.064h-.064s-.065 0-.065-.064v-.065-.064-.064-.065s0-.064.065-.064v-.129c.064 0 .064.065.128 0 .065.065 0 .193 0 .193h.065v.258zm.193.064s-.065.064-.129.064h-.064v-.064-.129-.064c0 .064.064.064.064.129v.064h.129zm1.8 1.35c0-.064 0-.064 0 0 0-.064 0-.064 0 0zm.129-.45s-.064 0 0 0h-.064v-.064h.064c-.129 0-.064 0 0 .064zm-.129-.514s-.064-.065-.128-.065c-.065 0-.065-.064-.065-.128.065 0 .065 0 .129.064v-.064c.064 0 .193.064.193.064s0 .064.064.064c-.064 0-.128.065-.193.065zm.257.064c-.064 0-.064 0 0 0-.064 0-.064 0 0 0-.064 0-.064 0 0 0zm.193.064h-.064c-.064 0-.064-.064-.064-.128h.128c-.064.064-.064.064 0 .128zm0-.193c-.064 0-.128-.064-.193-.064.13 0 .193 0 .258.064h-.065zm1.608.065c0 .064 0 .064 0 0zM13.441 3.6c-.065 0-.065 0 0 0-.065-.064-.065 0 0 0zM1.479 11.704c-.064 0 0 0 0 0 0-.064 0-.064 0 0zm1.222 2.187c-.129 0-.193-.065-.257-.129-.065 0-.065-.129-.065-.193a.138.138 0 0 0-.128-.128v-.193c-.065-.065-.129-.129-.129-.258.129-.064.257-.064.322-.193v-.064h.064c0 .064.064.129.064.129l.129.128v.193c0 .129 0 .45.064.515-.064.128-.064.128-.064.193zm3.794-2.251c-.064.064-.193.128-.257.064-.064 0-.064 0-.064-.064 0-.129.064-.193.128-.322.129.065.193.193.257.258l-.064.064zm7.524-6.881c0 .064 0 .064 0 0v0zm-.128.9c.064.064 0 .129 0 .193-.065-.064-.065-.129 0-.193zm-.129.322c.064 0 .064 0 0 0zm-.064 0c.064.064 0 .064.064.128 0 .065-.129.129-.064.258h-.129c-.064 0-.064 0-.128.064v.128c-.065 0-.065-.064-.065-.064v-.193h.065c0-.064-.065-.128-.065-.257.129-.064.257 0 .322-.064zm-.708-.772s-.064 0-.064-.064c-.064-.065-.193-.322-.193-.386h.064c0 .064.065.064.129.128 0 .065 0 .13.064.13l.065.063c.128.129.193.258.321.322h-.128v.064c.064.065.193.129.257.257v.065c-.064 0-.064 0-.064-.065v.065c-.065-.129-.193-.322-.258-.45-.128 0-.128-.065-.193-.129zm.065 2.572h.128c0 .065 0 .193.065.193 0 .065 0 .065-.065.129h-.128c0-.064.064-.129 0-.193-.065 0-.065 0-.065.064h-.064c0-.128.064-.128.129-.193zm-.129 3.409s-.064 0 0 0l-.064-.065c0 .065 0 .065.064.193h-.064v-.064c-.065 0-.065 0-.065.064h-.064c0-.064.064-.064.064-.193a.354.354 0 0 0-.321.193.502.502 0 0 1 .257-.257v.064h.064v-.064h.065c.064 0 .064-.064.064-.064v.128h.064s0 .065-.064.065zm0 .9l-.064.064c0-.064.064-.064.064-.064zm-.772-1.543c.065-.065.129-.065.129 0h.064v.128c-.128 0-.128-.064-.193-.128zm.58.193c0-.065 0-.065 0 0l.063-.065c0 .065.065.065.065.129.064 0 .064 0 .064-.064v.064h-.129v-.064h-.064zm.063.128c0 .064 0 .064 0 0-.064.064-.128.064-.128 0s0-.064.064-.128c0 .064-.064.128.064.128zm-.321-.257v-.064h.129c0 .064-.065.064-.13.064zm.064.386c-.064-.129 0-.129 0-.193.065.064 0 .128 0 .193zm0-.257v.064c0 .064-.064.064-.128.128v-.192h.128zm.45.192c-.064 0-.064 0 0 0-.064-.064-.064-.064 0 0 0-.064 0-.064 0 0zm-.257-.45c.064 0 .064 0 0 0 .064 0 .129.065.129.129v.064c-.129 0-.065 0-.129-.064 0 0-.064 0-.064-.064l.064-.065c0 .065 0 .065 0 0zm-.257-2.572h.129v.064c-.065 0-.13 0-.13-.064 0 .064 0 .064 0 0zm-.257 1.286c.064.129.064.257 0 .322l-.065-.065c-.064-.128 0-.193.065-.257zm-.065 1.03v-.194c.065 0 .193 0 .258-.064 0 .128 0 .321-.129.321v.193h.257l.065-.064v.064h-.13v.129c-.063 0-.063-.064-.192-.064v.064c-.064 0-.064-.064-.064-.064-.065 0-.129.064-.129 0-.064 0-.129-.129-.129-.193.129-.129.129-.129.193-.129zm-1.607 0c0-.065 0-.13.064-.13.129 0 .193-.064.321 0 0 .065-.064.13-.064.13h-.321zm-.258 2.443h.129v.064c-.064 0-.064 0-.129-.064zm-.257-.129c.129 0 .129.065.193.065v.064c-.193.064-.129 0-.193-.129zm-1.479-.386h-.129c.065-.064.065-.064.13 0zm.836.58c0-.065-.064-.13-.064-.13-.065-.064-.129-.064-.193-.128s-.064-.129-.064-.193-.13-.064-.193-.064l-.193-.193v-.065c-.065 0-.129-.064-.129-.064v-.064c.129 0 .322 0 .45.064.065 0 .065.064.065.129h.128l.193.193h.129c.128 0 .193.128.257.128v.065c0 .128.064 0 .129.064v.064c.064 0 .128.065.192.065 0 .128-.064.128-.064.257-.321.128-.514 0-.643-.129zm1.93.32c-.194.065-.45 0-.644.065-.128 0-.321.064-.514 0-.065 0-.129-.064-.193-.064.064-.065.257-.129.45-.129.193.064.193 0 .386 0 .193-.064.321.064.45-.064h.129c-.065 0-.193 0-.258.064 0 .129.065.129.193.129zm.128.065h-.129.129c0-.064 0-.064 0 0zm.193-.064c-.064 0-.064 0 0 0h-.064v-.065l.064.065zm-.193-.45c-.064.064-.129 0-.193-.065-.064 0-.129.065-.193.065s-.257-.065-.321 0h-.065c0-.065.065-.13.065-.193h-.13v-.065c0-.064-.063 0-.063-.064v-.064c0-.065.257-.193.385-.129v-.064c0-.129.258-.193.322-.258.064-.064.129-.128.129-.192.064-.065.128 0 .193-.065.064-.064.064-.128.128-.193.193 0 .193.129.386.129 0 .064-.064.064-.129.064h-.064l.064.065s-.064 0-.064.064c-.064.064-.064.193 0 .193 0 .064.064.064.129.128-.065 0-.193.065-.193.129s0 .129-.065.129h-.064v.128c-.064.193-.193.258-.257.258zm.257.45s-.064 0 0 0c0-.065.129-.065.193-.129 0 .129-.129.064-.193.129zm.386-.065c.064-.064.193-.064.257-.128 0 .064-.128.064-.257.128zm0-.257c.064 0 .064 0 0 0 .064 0 .064 0 0 0zm.193-.193c-.064-.064-.064-.128-.064-.193h-.065v.322h-.128v-.193h-.065c0-.193.193-.257.193-.386.129 0 .129-.064.193-.129h.193a.354.354 0 0 0 .322-.193c-.065.193-.45.258-.643.322 0 .064 0 .064.064.129a.491.491 0 0 0 .322-.129h.064v.064c-.129 0-.193.129-.322.129 0 .064.065.193.129.193-.064 0-.129 0-.193.064zm.45-.386s0 .065 0 0zm0 .58c0 .063 0 .063 0 0-.064.063-.064.063 0 0l-.064.063.064-.064zm-.257-.515s.064 0 .129-.065c0 .065 0 .065-.065.065h-.064zm.386.578a2.001 2.001 0 0 0-.386.258c0-.193.257-.193.386-.258zm.064-.128s-.064.064-.129.064c0 0 .065 0 .065-.064h.064zm.129-.386h-.129v-.064s.064 0 .129.064zm-.065-.515c0-.064.065-.064.129-.192v.064a.138.138 0 0 0 .129-.129c0 .065 0 .065-.065.129v.064h.065c0 .064-.065.064-.129.064 0 .065 0 .065.064.13-.064 0-.064-.065-.193-.13zm.258-.257v0zm-.065-3.73l.193-.193c0 .065-.064.129-.128.193h-.065zm.065 5.21c0-.065 0-.065 0 0l.064-.065-.064.064zm.128-.837c-.064 0-.128 0-.128.065h-.065c0-.065.129-.065.193-.065.065 0 0 0 0 0zm0-.128h-.064c0-.065 0-.065.064-.065h.065s0 .065-.065.065zm.065-4.373v-.129c-.13-.064-.258.064-.322.129h-.064c0-.129.064-.193.128-.258h.193c0-.064 0-.257.065-.321v.064h.064c.064-.064.064-.064.064-.128.129-.129-.064-.322-.064-.45 0 0 .064-.065.064-.13.064.065.129.194.193.194v.321c0 .065.064.129.064.193v.129s-.257.128-.321.128c0 0 0 .065.064.065 0 .128 0 .128-.128.193zm.771 4.63c-.064-.064 0-.064 0-.064h.065l-.065.064zm.386-.193c0 .129-.129.129-.257.193-.064 0-.129-.129-.193-.193-.129 0-.193.064-.322 0-.064 0-.128-.064-.128 0 0 0 0 .064-.065.064-.064 0-.064-.064-.128-.064.064 0 .128-.064.193-.064h-.129v-.065h-.064c.064 0 .321-.128.386-.128.064 0 0 0 0 .064h.064c.064 0 .193-.193.257-.257h.322c.064 0 .257-.064.321 0v.064c.065.064.129.064.193.064v.065c0 .128.129.064.193.193-.064 0-.193.064-.257.064v-.064c-.193-.065-.257 0-.386.064zM5.08 4.244c-.064 0 0 0 0 0zM1.35 7.653c0-.065 0 0 0 0 0-.065 0 0 0 0zm.258-2.058s0-.064.064-.064h.129l.128-.13.065-.063h.192v.064s.13 0 .13.064v.065H2.25c0 .064-.065.128-.065.192 0 0 0 .065.065 0l.064-.064h.064c0-.064 0-.193.065-.128H2.7s0 .064-.064.064l-.065.064-.064.064c-.064.065 0 .13 0 .193v.065c0 .064.064.064.064.064v.322h-.064l-.064-.065s-.065 0-.065-.064l-.064-.064-.064-.065a.138.138 0 0 0-.129-.128c-.064 0-.128 0-.193-.065l-.064-.064-.064-.064v.128h-.065-.064l-.064-.064.064-.064s.064 0 .064-.065c-.128 0-.128-.064-.128-.128zm1.415.964v-.064-.128-.13s0-.063.064-.063v-.065s-.064-.064 0-.064l.064-.064.064-.065h.258c.064 0 .064-.064.128-.064.065 0 .065 0 .065.064h.193s0 .065-.065.065c0 0 0 .064-.064.064l-.064.064H3.6v.065c0 .064-.064 0-.064 0-.064 0-.064-.065-.129-.065-.064 0 0 .065 0 .065h-.064-.064v.064s.064 0 .064.064v.065s0 .064.064.064v.064h.065v.257s0 .065-.065.065l-.064.064v.45h-.257-.064v-.064l-.065-.064v-.065-.064-.064-.065-.064-.064c0-.065.065-.065.065-.065v-.064h.128l-.128-.129zm1.028 0h-.064s-.064 0-.064-.064v-.064s.064 0 .064-.064c.064-.065.064-.13.064-.13.065 0 .13 0 .13-.063.063 0 .063-.065.128-.065 0 0 .064 0 .064.065v.064s-.064 0-.064.064v.129h-.065s-.064 0-.064.064 0 .064-.064.064H4.05c.13 0 .065 0 0 0 .065.065.065.065 0 0zM5.21 3.73c.064-.063.064-.128.129-.128.064-.064.128-.064.128-.128.129-.065.193-.193.322-.193h.064v.064l-.129.129c-.064 0-.064.064-.128.128l-.129.129c-.064.064-.128.064-.128.129 0 .064-.065.064-.065.128s-.064.064-.064.129c-.064 0-.064.064-.064.128v.129c0 .064-.065.064-.065.129-.064.064-.064.064-.064.128 0 .065-.064.065-.064.129s-.065.064-.065.128l-.128.13c-.064.063-.193.128-.257.192l-.065.064c-.064.065-.128.129-.193.129 0 0-.064 0-.064-.064l.064-.065c.065-.064.065-.128.129-.128 0 0 .064 0 .064-.065v-.064c0-.064.065-.064.129-.129.064-.064.129-.064.129-.128.064-.064.064-.129.128-.193v-.064c0-.065.064-.065.064-.129s.065-.064.065-.129c0-.064.064-.064.064-.128.064-.193.064-.257.193-.386-.064.064-.064.064 0 0zM4.116 5.532s-.065 0-.065.064c0 0-.064 0-.064-.064 0-.065.064-.065.129-.065.064 0 .064-.064.064-.064l.064-.064s.065-.065.129 0c.064 0 0 .064 0 .064s-.064 0-.129.064c0 0 0 .065-.064.065 0-.065 0-.065-.064 0zm.45-.45v-.065-.064h.129v.064c0 .064 0 .064-.065.064v.065s0 .064-.064.064l-.064.064h-.065c-.064 0 0-.064 0-.064v-.064-.065c0-.064.065 0 .129 0-.064 0-.064.065 0 0-.064.065 0 .065 0 0zM7.78 2.7s.065 0 0 0h.258s0-.064.064-.064c0 0 .064 0 .064-.065.065 0 .065-.064.129-.064h.064v.193h-.064-.064-.065-.064-.064s-.065 0-.065.064l-.064.065h-.064c-.065 0-.065-.065-.065-.065v-.064-.064c-.064.064 0 .064 0 .064zm-4.244.836c0 .064 0 .064 0 0-.064.064-.064.064-.129.064h-.064v-.064s0-.064.064-.064h.129c.064 0 .064 0 0 .064.064 0 0 0 0 0zm.129.064v-.064s0-.064.064-.064h.129V3.6h-.193c.064 0 .064 0 0 0 .064.065.064 0 0 0z" fill="url(#a)"/>
    </g>
    <g fill="#1C3F94">
      <path d="M6.945 32.54c.515.322.965.579 1.35.772l-.32.707c-.58-.193-1.158-.514-1.737-.964a3.992 3.992 0 0 1-1.994.514c-.707 0-1.35-.193-1.993-.514-.579-.322-1.03-.836-1.35-1.48-.322-.643-.45-1.35-.45-2.122 0-.771.128-1.479.45-2.186.32-.643.771-1.158 1.35-1.48a3.992 3.992 0 0 1 1.993-.514c.708 0 1.415.193 1.994.515.579.321 1.029.836 1.35 1.479.322.643.45 1.35.45 2.122 0 .643-.128 1.222-.321 1.8-.193.58-.322.965-.772 1.351zM4.63 31.19c.643.193 1.093.45 1.544.771.643-.578.964-1.414.964-2.572 0-.643-.128-1.222-.321-1.672-.193-.45-.515-.836-.965-1.158-.45-.257-.9-.385-1.415-.385-.771 0-1.414.257-1.993.836-.579.578-.772 1.35-.772 2.443 0 1.03.257 1.865.772 2.38.514.579 1.157.836 1.993.836.386 0 .708-.064 1.094-.193-.322-.193-.708-.386-1.03-.45l.13-.836zM13.505 33.44v-.835c-.45.643-1.093.964-1.865.964a2.58 2.58 0 0 1-.965-.193 1.343 1.343 0 0 1-.643-.514 2.377 2.377 0 0 1-.321-.708c-.065-.193-.065-.514-.065-.9v-3.601h.965v3.215c0 .515 0 .836.064 1.03.065.256.193.45.386.578.193.129.45.193.772.193.321 0 .579-.064.836-.257.257-.129.45-.386.579-.644.128-.257.193-.643.193-1.157v-2.958h.964v5.788h-.9zM19.936 32.733c-.386.322-.708.515-1.03.643a3.004 3.004 0 0 1-1.092.193c-.644 0-1.158-.128-1.48-.45a1.647 1.647 0 0 1-.514-1.222c0-.257.064-.514.193-.772.128-.257.321-.45.514-.578.193-.129.45-.258.708-.322.193-.064.514-.129.9-.129.772-.064 1.35-.192 1.736-.321v-.257c0-.386-.064-.708-.257-.836-.257-.193-.643-.322-1.093-.322-.45 0-.836.064-1.029.257a2.07 2.07 0 0 0-.515.836l-.964-.128a2.51 2.51 0 0 1 .45-1.03c.193-.256.514-.45.9-.578a4.146 4.146 0 0 1 1.287-.193c.514 0 .9.064 1.221.193.322.129.515.257.708.45.128.193.257.386.321.643.065.193.065.45.065.9v1.287c0 .9 0 1.479.064 1.736.064.257.129.45.257.708h-1.029c-.193-.193-.257-.45-.321-.708zm-.065-2.186c-.385.128-.9.257-1.607.385-.386.065-.708.13-.836.193a.659.659 0 0 0-.386.322 1.192 1.192 0 0 0-.129.45c0 .257.129.45.322.643s.514.257.9.257.707-.064 1.029-.257c.322-.193.514-.386.643-.707.129-.193.129-.579.129-.965v-.321h-.065zM22.572 33.44v-8.038h.965v8.039zM25.338 26.56v-1.158h.964v1.157h-.964zm0 6.88v-5.787h.964v5.788h-.964zM30.16 32.54l.13.9c-.258.065-.515.065-.772.065-.386 0-.643-.064-.836-.193-.193-.129-.322-.257-.386-.45s-.129-.579-.129-1.158V28.36h-.707v-.707h.707v-1.415l.965-.579v2.058h.964v.772h-.964v3.408c0 .257 0 .45.064.515.064.064.064.128.193.193.064.064.193.064.322.064.128-.064.257-.064.45-.129zM31.318 35.691l-.128-.9c.193.064.386.064.578.064.193 0 .386-.064.515-.128a.775.775 0 0 0 .322-.322c.064-.128.192-.321.321-.707 0-.065.064-.129.064-.257l-2.186-5.788h1.029l1.222 3.344c.128.45.321.9.45 1.35l.386-1.35 1.222-3.409h.964l-2.186 5.917c-.258.643-.45 1.093-.58 1.286-.192.322-.385.579-.578.707-.257.129-.514.258-.836.258-.129 0-.386 0-.579-.065zM46.367 30.61l1.028.258c-.192.9-.643 1.544-1.221 1.994-.58.45-1.287.707-2.123.707-.836 0-1.543-.193-2.122-.514a3.002 3.002 0 0 1-1.222-1.544c-.257-.643-.45-1.35-.45-2.122 0-.836.129-1.543.45-2.186a3.2 3.2 0 0 1 1.35-1.415 3.929 3.929 0 0 1 1.93-.515c.772 0 1.48.193 1.994.643.514.386.9.965 1.157 1.737l-1.029.257c-.193-.579-.45-1.029-.836-1.286-.321-.257-.771-.386-1.35-.386-.643 0-1.158.129-1.544.45-.385.322-.707.707-.9 1.158a4.323 4.323 0 0 0-.257 1.543c0 .707.128 1.286.321 1.8.193.515.515.901.9 1.158.387.258.901.386 1.351.386.579 0 1.093-.193 1.48-.514.385-.322.9-.9 1.093-1.608zM52.605 32.733c-.386.322-.708.515-1.03.643a3.004 3.004 0 0 1-1.093.193c-.643 0-1.157-.128-1.479-.45a1.647 1.647 0 0 1-.514-1.222c0-.257.064-.514.193-.772.128-.257.321-.45.514-.578.193-.129.45-.258.708-.322.192-.064.514-.129.9-.129.772-.064 1.35-.192 1.736-.321v-.257c0-.386-.064-.708-.257-.836-.257-.193-.643-.322-1.093-.322-.45 0-.836.064-1.03.257a2.07 2.07 0 0 0-.514.836l-.964-.128a2.51 2.51 0 0 1 .45-1.03c.193-.256.514-.45.9-.578a4.146 4.146 0 0 1 1.286-.193c.515 0 .9.064 1.222.193.322.129.515.257.708.45.128.193.257.386.321.643.064.193.064.45.064.9v1.287c0 .9 0 1.479.065 1.736.064.257.128.45.257.708h-1.029c-.257-.193-.321-.45-.321-.708zm-.065-2.186c-.386.128-.9.257-1.608.385-.385.065-.707.13-.836.193a.659.659 0 0 0-.385.322 1.192 1.192 0 0 0-.129.45c0 .257.129.45.322.643.192.193.514.257.9.257s.707-.064 1.029-.257c.321-.193.514-.386.643-.707.129-.193.129-.579.129-.965v-.321h-.065zM55.241 33.44v-5.787h.9v.836c.45-.643 1.03-.965 1.865-.965.322 0 .644.064.965.193.322.129.515.322.643.515.129.192.257.45.322.707.064.193.064.514.064.965v3.537h-.965v-3.537c0-.386-.064-.708-.128-.9-.065-.194-.193-.387-.386-.45-.193-.065-.45-.194-.707-.194-.45 0-.772.129-1.094.386-.321.257-.45.772-.45 1.543v3.152h-1.029zM65.466 33.44v-.707c-.386.579-.9.836-1.607.836-.45 0-.9-.128-1.287-.386a2.512 2.512 0 0 1-.9-1.093 3.971 3.971 0 0 1-.322-1.608c0-.578.065-1.093.258-1.607.193-.45.514-.836.9-1.094a2.319 2.319 0 0 1 1.286-.386c.322 0 .643.065.965.193.257.129.514.322.643.58v-2.895h.965v8.168h-.9zm-3.087-2.893c0 .771.129 1.286.45 1.672.322.386.708.578 1.094.578.45 0 .772-.192 1.093-.514.322-.322.45-.9.45-1.608 0-.771-.128-1.35-.45-1.736-.321-.386-.707-.579-1.157-.579-.45 0-.772.193-1.094.515-.257.321-.386.9-.386 1.672zM68.167 26.56v-1.158h.965v1.157h-.965zm0 6.88v-5.787h.965v5.788h-.965zM74.598 33.44v-.707c-.386.579-.9.836-1.608.836-.45 0-.9-.128-1.286-.386a2.512 2.512 0 0 1-.9-1.093 3.971 3.971 0 0 1-.322-1.608c0-.578.129-1.093.322-1.607.193-.515.514-.836.9-1.094a2.319 2.319 0 0 1 1.286-.386c.322 0 .643.065.965.193.322.129.514.322.643.58v-2.895h.965v8.168h-.965zm-3.087-2.893c0 .771.129 1.286.45 1.672.322.386.708.578 1.094.578.45 0 .771-.192 1.093-.514.321-.322.45-.9.45-1.608 0-.771-.129-1.35-.45-1.736-.322-.386-.707-.579-1.158-.579-.45 0-.771.193-1.093.515-.257.321-.386.9-.386 1.672zM81.093 32.733c-.386.322-.707.515-1.029.643a3.004 3.004 0 0 1-1.093.193c-.643 0-1.157-.128-1.479-.45a1.647 1.647 0 0 1-.515-1.222c0-.257.065-.514.193-.772.129-.257.322-.45.515-.578.193-.129.45-.258.707-.322.193-.064.515-.129.9-.129.772-.064 1.351-.192 1.737-.321v-.257c0-.386-.064-.708-.257-.836-.258-.193-.643-.322-1.094-.322-.45 0-.836.064-1.028.257a2.07 2.07 0 0 0-.515.836l-.965-.128a2.51 2.51 0 0 1 .45-1.03c.194-.256.515-.45.837-.578a4.146 4.146 0 0 1 1.286-.193c.514 0 .9.064 1.222.193.321.129.514.257.707.45.129.193.257.386.322.643.064.193.064.45.064.9v1.287c0 .9 0 1.479.064 1.736.064.257.129.45.257.708H81.35c-.192-.193-.257-.45-.257-.708zm-.064-2.186c-.386.128-.9.257-1.608.385-.386.065-.707.13-.836.193a.659.659 0 0 0-.386.322 1.192 1.192 0 0 0-.128.45c0 .257.128.45.321.643s.515.257.9.257c.386 0 .708-.064 1.03-.257.321-.193.514-.386.643-.707.128-.193.128-.579.128-.965v-.321h-.064zM85.916 32.54l.129.9c-.257.065-.514.065-.772.065-.386 0-.643-.064-.836-.193-.193-.129-.321-.257-.386-.45-.064-.193-.128-.579-.128-1.158V28.36h-.708v-.707h.708v-1.415l.964-.579v2.058h.965v.772h-.965v3.408c0 .257 0 .45.065.515.064.064.064.128.193.193.064.064.193.064.321.064.129-.064.257-.064.45-.129zM91.061 31.576l1.029.128a2.217 2.217 0 0 1-.9 1.35c-.45.322-.965.515-1.672.515-.836 0-1.544-.257-1.994-.772-.514-.514-.772-1.286-.772-2.186 0-.965.258-1.736.772-2.25.515-.515 1.158-.837 1.93-.837.771 0 1.414.257 1.929.772.514.514.707 1.286.707 2.25v.258h-4.309c.065.643.193 1.157.515 1.479.321.322.707.514 1.222.514.386 0 .643-.064.9-.257s.514-.579.643-.964zm-3.215-1.608h3.215c-.064-.515-.193-.836-.386-1.093-.321-.386-.707-.58-1.222-.58-.45 0-.836.13-1.157.451-.322.322-.45.707-.45 1.222zM93.119 31.704l.965-.128c.064.385.193.707.45.9.257.193.579.321 1.029.321.45 0 .771-.064 1.029-.257.257-.193.321-.386.321-.643a.585.585 0 0 0-.257-.514c-.129-.065-.45-.193-1.029-.322-.707-.193-1.222-.321-1.48-.45-.256-.129-.514-.322-.642-.579a1.712 1.712 0 0 1-.193-.772c0-.257.064-.514.193-.707.128-.193.257-.386.514-.579.129-.128.386-.193.643-.257.258-.064.58-.129.836-.129.45 0 .836.065 1.222.193.386.129.579.322.772.515.193.193.257.514.322.9l-.965.129a1.27 1.27 0 0 0-.386-.708c-.193-.193-.514-.257-.9-.257-.45 0-.772.064-.965.193a.585.585 0 0 0-.257.515c0 .128.064.257.128.321.065.129.193.193.386.257.129.065.386.129.9.258.708.192 1.158.321 1.48.45.321.128.514.321.643.514.128.257.257.515.257.836 0 .322-.064.643-.257.9-.193.322-.45.515-.836.644-.386.128-.772.257-1.222.257-.772 0-1.35-.129-1.736-.45-.58-.258-.836-.772-.965-1.35zM99.614 33.44v-1.093h1.093v1.094c0 .385-.064.771-.193 1.028-.128.258-.385.45-.707.58l-.257-.45c.193-.065.386-.194.45-.387.129-.193.129-.45.193-.771h-.579zM112.219 32.54c.514.322.964.579 1.35.772l-.321.707c-.58-.193-1.158-.514-1.737-.964a3.992 3.992 0 0 1-1.993.514c-.708 0-1.35-.193-1.994-.514-.579-.322-1.029-.836-1.35-1.48-.322-.643-.45-1.35-.45-2.122 0-.771.128-1.479.45-2.186.321-.643.771-1.158 1.35-1.48a3.992 3.992 0 0 1 1.994-.514c.707 0 1.414.193 1.993.515.579.321 1.03.836 1.35 1.479.322.643.45 1.35.45 2.122 0 .643-.128 1.222-.32 1.8-.194.58-.386.965-.772 1.351zm-2.315-1.35c.643.193 1.093.45 1.543.771.643-.578.965-1.414.965-2.572 0-.643-.129-1.222-.322-1.672-.193-.45-.514-.836-.965-1.158-.45-.257-.9-.385-1.414-.385-.772 0-1.415.257-1.994.836-.514.514-.772 1.35-.772 2.443 0 1.03.258 1.865.772 2.38.515.579 1.158.836 1.994.836.385 0 .707-.064 1.093-.193-.322-.193-.708-.386-1.03-.45l.13-.836zM118.778 33.44v-.835c-.45.643-1.093.964-1.865.964a2.58 2.58 0 0 1-.964-.193 1.343 1.343 0 0 1-.644-.514 2.377 2.377 0 0 1-.321-.708c-.064-.193-.064-.514-.064-.9v-3.601h.964v3.215c0 .515 0 .836.065 1.03.064.256.192.45.385.578.193.129.45.193.772.193s.579-.064.836-.257c.257-.129.45-.386.579-.644.129-.257.129-.643.129-1.157v-2.958h.964v5.788h-.836zM125.209 32.733c-.386.322-.707.515-1.029.643a3.004 3.004 0 0 1-1.093.193c-.643 0-1.158-.128-1.48-.45a1.647 1.647 0 0 1-.514-1.222c0-.257.065-.514.193-.772.129-.257.322-.45.515-.578.193-.129.45-.258.707-.322.193-.064.515-.129.9-.129.772-.064 1.35-.192 1.737-.321v-.257c0-.386-.065-.708-.258-.836-.257-.193-.643-.322-1.093-.322-.45 0-.836.064-1.029.257a2.07 2.07 0 0 0-.514.836l-.965-.128a2.51 2.51 0 0 1 .45-1.03c.193-.256.515-.45.9-.578a4.146 4.146 0 0 1 1.287-.193c.514 0 .9.064 1.222.193.321.129.514.257.707.45.129.193.257.386.322.643.064.193.064.45.064.9v1.287c0 .9 0 1.479.064 1.736.065.257.129.45.257.708h-1.157a1.296 1.296 0 0 1-.193-.708zm-.129-2.186c-.385.128-.9.257-1.607.385-.386.065-.708.13-.836.193a.659.659 0 0 0-.386.322 1.192 1.192 0 0 0-.129.45c0 .257.129.45.322.643s.514.257.9.257.707-.064 1.029-.257c.322-.193.514-.386.643-.707.129-.193.129-.579.129-.965v-.321h-.065zM127.846 33.44v-8.038h.964v8.039zM130.547 26.56v-1.158h.964v1.157h-.964zm0 6.88v-5.787h.964v5.788h-.964zM135.434 32.54l.129.9c-.258.065-.515.065-.772.065-.386 0-.643-.064-.836-.193-.193-.129-.322-.257-.386-.45s-.128-.579-.128-1.158V28.36h-.708v-.707h.708v-1.415l.964-.579v2.058h.965v.772h-.965v3.408c0 .257 0 .45.064.515.065.064.065.128.193.193.065.064.193.064.322.064.129-.064.257-.064.45-.129zM136.527 35.691l-.128-.9c.193.064.386.064.578.064.193 0 .386-.064.515-.128a.775.775 0 0 0 .322-.322c.064-.128.192-.321.321-.707 0-.065.064-.129.064-.257l-2.186-5.788h1.029l1.222 3.344c.128.45.321.9.45 1.35l.386-1.35 1.222-3.409h.964l-2.186 5.917c-.258.643-.45 1.093-.58 1.286-.192.322-.385.579-.578.707-.257.129-.514.258-.836.258-.129 0-.321 0-.579-.065zM145.916 33.44v-8.038h5.788v.965h-4.759v2.443h4.438v.965h-4.438v2.7h4.888v.966zM153.44 33.44v-5.787h.9v.836c.194-.257.451-.515.708-.708.322-.193.643-.257 1.03-.257.45 0 .77.064 1.028.257.257.193.45.45.579.772.45-.707 1.029-1.029 1.8-1.029.58 0 1.03.129 1.351.45.322.322.45.836.45 1.48v3.987h-.964v-3.666c0-.386 0-.707-.065-.836a.659.659 0 0 0-.321-.386c-.193-.129-.386-.129-.58-.129-.385 0-.77.13-1.028.386-.257.258-.386.708-.386 1.286v3.345h-.965v-3.795c0-.45-.064-.771-.257-.964-.128-.193-.45-.322-.771-.322-.258 0-.515.064-.772.193s-.386.386-.515.643c-.128.257-.128.708-.128 1.222v3.023h-1.093zM162.958 35.627v-7.974h.9v.771c.193-.321.45-.514.708-.643.257-.128.579-.193.965-.193.514 0 .964.129 1.286.386.321.258.643.643.836 1.094.193.45.321.964.321 1.543s-.128 1.157-.321 1.608c-.193.45-.515.836-.9 1.093a2.319 2.319 0 0 1-1.287.386c-.321 0-.643-.065-.9-.193-.257-.129-.45-.322-.643-.515v2.83h-.965v-.193zm.9-5.08c0 .771.13 1.286.45 1.672.322.386.644.514 1.094.514.45 0 .836-.193 1.093-.579.322-.386.45-.964.45-1.736 0-.707-.128-1.286-.45-1.672-.321-.386-.643-.579-1.093-.579-.45 0-.772.193-1.093.579-.258.514-.45 1.093-.45 1.8zM169.39 33.44v-8.038h.964v8.039zM171.768 30.547c0-1.094.322-1.865.9-2.38.515-.45 1.094-.643 1.801-.643.772 0 1.48.257 1.93.772.514.514.771 1.222.771 2.186 0 .772-.128 1.35-.321 1.737-.193.386-.579.771-.965 1.029-.45.257-.9.385-1.415.385-.836 0-1.479-.257-1.993-.771-.45-.579-.708-1.35-.708-2.315zm1.03 0c0 .771.192 1.286.514 1.672.321.386.707.578 1.222.578.514 0 .9-.192 1.222-.578.321-.386.514-.965.514-1.672 0-.708-.193-1.287-.514-1.608-.322-.386-.708-.579-1.222-.579-.515 0-.9.193-1.222.579-.386.257-.515.836-.515 1.608zM178.52 35.691l-.128-.9c.193.064.386.064.58.064.192 0 .385-.064.514-.128a.775.775 0 0 0 .321-.322c.064-.128.193-.321.322-.707 0-.065.064-.129.064-.257l-2.187-5.788h1.03l1.221 3.344c.129.45.322.9.45 1.35l.386-1.35 1.222-3.409h.965l-2.187 5.917c-.257.643-.45 1.093-.579 1.286-.192.322-.385.579-.578.707-.258.129-.515.258-.836.258-.129 0-.322 0-.58-.065zM188.36 31.576l1.03.128a2.217 2.217 0 0 1-.901 1.35c-.45.322-.965.515-1.672.515-.836 0-1.544-.257-1.994-.772-.514-.514-.772-1.286-.772-2.186 0-.965.258-1.736.772-2.25.515-.515 1.158-.837 1.93-.837.771 0 1.414.257 1.929.772.514.514.707 1.286.707 2.25v.258h-4.309c.065.643.193 1.157.515 1.479.321.322.707.514 1.222.514.386 0 .643-.064.9-.257s.515-.579.643-.964zm-3.215-1.608h3.215c-.064-.515-.193-.836-.386-1.093-.321-.386-.707-.58-1.222-.58-.45 0-.836.13-1.157.451-.322.322-.45.707-.45 1.222zM190.804 33.44v-5.787h.9v.9c.257-.386.45-.707.643-.836s.386-.193.643-.193c.322 0 .643.129 1.03.322l-.322.9c-.257-.129-.45-.193-.708-.193-.193 0-.385.064-.578.193a1 1 0 0 0-.386.514c-.129.322-.193.708-.193 1.158v3.023h-1.03zM194.405 31.704l.965-.128c.064.385.193.707.45.9.257.193.579.321 1.029.321.45 0 .772-.064 1.029-.257.257-.193.321-.386.321-.643 0-.193-.128-.386-.321-.514-.129-.065-.45-.193-1.03-.322-.707-.193-1.221-.321-1.478-.45-.257-.129-.515-.322-.643-.579a1.712 1.712 0 0 1-.193-.772c0-.257.064-.514.193-.707.128-.193.257-.386.514-.579.129-.128.386-.193.643-.257s.579-.129.836-.129c.45 0 .836.065 1.222.193.322.129.579.322.772.515.193.193.257.514.321.9l-.964.129a1.27 1.27 0 0 0-.386-.708c-.193-.193-.515-.257-.9-.257-.45 0-.772.064-.965.193-.193.129-.322.322-.322.515 0 .128.065.257.129.321.064.129.193.193.386.257.128.065.386.129.9.258.708.192 1.158.321 1.48.45.32.128.514.321.642.514.129.257.258.515.258.836 0 .322-.065.643-.258.9-.193.322-.45.515-.836.644-.385.128-.771.257-1.222.257-.771 0-1.35-.129-1.736-.45-.45-.258-.707-.772-.836-1.35z"/>
    </g>
  </g>
</svg>
