<svg xmlns="http://www.w3.org/2000/svg" viewBox="0 0 256 63">
  <path id="logoCircle" d="M0 31.5C0 14.1 14.1 0 31.5 0S63 14.1 63 31.5 48.9 63 31.5 63 0 48.9 0 31.5" fill="#173583"/>
  <path id="logoDots" fill="#ffffff" d="M32.2 11.6c0 1.1.9 2 2 2s2-.9 2-2-.9-2-2-2c-1.1.1-2 1-2 2M38.4 18.3c0 1.2 1 2.2 2.2 2.2 1.2 0 2.2-1 2.2-2.2 0-1.2-1-2.2-2.2-2.2-1.3 0-2.2 1-2.2 2.2M32.2 18.3c0 1.1.9 2 2 2s2-.9 2-2-.9-2-2-2-2 .9-2 2M44.9 24.9c0 1.3 1.1 2.4 2.4 2.4 1.3 0 2.4-1.1 2.4-2.4 0-1.3-1.1-2.4-2.4-2.4-1.3 0-2.4 1.1-2.4 2.4M38.4 24.9c0 1.2 1 2.2 2.2 2.2 1.2 0 2.2-1 2.2-2.2 0-1.2-1-2.2-2.2-2.2-1.3 0-2.2 1-2.2 2.2M32.2 24.9c0 1.1.9 2 2 2s2-.9 2-2-.9-2-2-2-2 .9-2 2M26.4 24.9c0 1 .8 1.7 1.7 1.7 1 0 1.7-.8 1.7-1.7 0-1-.8-1.7-1.7-1.7-.9 0-1.7.7-1.7 1.7M21.5 24.9c0 .8.7 1.5 1.5 1.5s1.5-.7 1.5-1.5-.7-1.5-1.5-1.5-1.5.7-1.5 1.5M16.9 24.9c0 .7.6 1.2 1.2 1.2.7 0 1.2-.6 1.2-1.2 0-.7-.5-1.2-1.2-1.2s-1.2.5-1.2 1.2M12.9 24.9c0 .5.4 1 1 1 .5 0 1-.4 1-1 0-.5-.4-1-1-1-.5 0-1 .4-1 1M9.2 24.9c0 .4.3.7.7.7.4 0 .7-.3.7-.7 0-.4-.3-.7-.7-.7-.4-.1-.7.3-.7.7M6 24.9c0 .3.2.5.5.5s.5-.2.5-.5-.2-.5-.5-.5c-.2 0-.5.2-.5.5M44.9 31.5c0 1.3 1.1 2.4 2.4 2.4 1.3 0 2.4-1.1 2.4-2.4 0-1.3-1.1-2.4-2.4-2.4-1.3 0-2.4 1.1-2.4 2.4M38.4 31.5c0 1.2 1 2.2 2.2 2.2 1.2 0 2.2-1 2.2-2.2 0-1.2-1-2.2-2.2-2.2-1.3 0-2.2 1-2.2 2.2M32.2 31.5c0 1.1.9 2 2 2s2-.9 2-2-.9-2-2-2-2 .9-2 2M26.4 31.5c0 1 .8 1.7 1.7 1.7 1 0 1.7-.8 1.7-1.7 0-1-.8-1.7-1.7-1.7-.9 0-1.7.7-1.7 1.7M21.5 31.5c0 .8.7 1.5 1.5 1.5s1.5-.7 1.5-1.5S23.8 30 23 30s-1.5.7-1.5 1.5M16.9 31.5c0 .7.6 1.2 1.2 1.2.7 0 1.2-.6 1.2-1.2 0-.7-.5-1.2-1.2-1.2s-1.2.5-1.2 1.2M12.9 31.5c0 .5.4 1 1 1 .5 0 1-.4 1-1 0-.5-.4-1-1-1-.5 0-1 .5-1 1M9.2 31.5c0 .4.3.7.7.7.4 0 .7-.3.7-.7 0-.4-.3-.7-.7-.7-.4 0-.7.3-.7.7M6 31.5c0 .3.3.5.5.5.3 0 .5-.2.5-.5s-.2-.5-.5-.5c-.2 0-.5.2-.5.5M51.6 31.6c0 1.5 1.2 2.7 2.7 2.7 1.5 0 2.7-1.2 2.7-2.7 0-1.5-1.2-2.7-2.7-2.7-1.5 0-2.7 1.2-2.7 2.7M44.9 38.1c0 1.3 1.1 2.4 2.4 2.4 1.3 0 2.4-1.1 2.4-2.4 0-1.3-1.1-2.4-2.4-2.4-1.3 0-2.4 1.1-2.4 2.4M38.4 38.1c0 1.2 1 2.2 2.2 2.2 1.2 0 2.2-1 2.2-2.2 0-1.2-1-2.2-2.2-2.2-1.3 0-2.2 1-2.2 2.2M32.2 38.1c0 1.1.9 2 2 2s2-.9 2-2-.9-2-2-2-2 .9-2 2M26.4 38.1c0 1 .8 1.7 1.7 1.7 1 0 1.7-.8 1.7-1.7 0-1-.8-1.7-1.7-1.7-.9 0-1.7.8-1.7 1.7M21.5 38.1c0 .8.7 1.5 1.5 1.5s1.5-.7 1.5-1.5-.7-1.5-1.5-1.5-1.5.7-1.5 1.5M16.9 38.1c0 .7.6 1.2 1.2 1.2.7 0 1.2-.6 1.2-1.2 0-.7-.5-1.2-1.2-1.2s-1.2.5-1.2 1.2M12.9 38.1c0 .5.4 1 1 1 .5 0 1-.4 1-1 0-.5-.4-1-1-1-.5 0-1 .5-1 1M9.2 38.1c0 .4.3.7.7.7.4 0 .7-.3.7-.7 0-.4-.3-.7-.7-.7-.4 0-.7.3-.7.7M6 38.1c0 .3.2.5.5.5s.5-.2.5-.5-.2-.5-.5-.5c-.2 0-.5.2-.5.5M38.4 44.7c0 1.2 1 2.2 2.2 2.2 1.2 0 2.2-1 2.2-2.2 0-1.2-1-2.2-2.2-2.2-1.3.1-2.2 1-2.2 2.2M32.2 44.7c0 1.1.9 2 2 2s2-.9 2-2-.9-2-2-2c-1.1.1-2 1-2 2M32.2 51.4c0 1.1.9 2 2 2s2-.9 2-2-.9-2-2-2-2 .9-2 2"/>
  <path id="logoText" d="M81.5 42.9c-3.8 0-7.2-.4-10.3-3.5l3.9-3.9c2 2 4.6 2.3 6.5 2.3 2.1 0 4.3-.7 4.3-2.5 0-1.2-.6-2-2.6-2.2l-3.8-.4c-4.4-.4-7.1-2.3-7.1-6.8 0-5 4.4-7.7 9.3-7.7 3.8 0 6.9.6 9.2 2.8l-3.7 3.8c-1.4-1.3-3.5-1.6-5.6-1.6-2.4 0-3.4 1.1-3.4 2.3 0 .9.4 1.9 2.5 2.1l3.8.4c4.8.5 7.2 3 7.2 7.1 0 5.2-4.5 7.8-10.2 7.8zM100.6 32.4c0 3.1 1.9 5.4 5.3 5.4 2.6 0 3.9-.7 5.5-2.3l3.7 3.6c-2.5 2.5-4.8 3.8-9.2 3.8-5.7 0-11.2-2.6-11.2-12.4 0-7.9 4.3-12.3 10.5-12.3 6.7 0 10.5 4.9 10.5 11.6v2.7h-15.1zm8.6-6.7c-.6-1.4-2-2.5-4-2.5s-3.4 1.1-4 2.5c-.4.9-.5 1.5-.6 2.6h9.2c0-1.1-.2-1.8-.6-2.6zM125.1 32.4c0 3.1 1.9 5.4 5.3 5.4 2.6 0 3.9-.7 5.5-2.3l3.7 3.6c-2.5 2.5-4.8 3.8-9.2 3.8-5.7 0-11.2-2.6-11.2-12.4 0-7.9 4.3-12.3 10.5-12.3 6.7 0 10.5 4.9 10.5 11.6v2.7h-15.1zm8.6-6.7c-.6-1.4-2-2.5-4-2.5s-3.4 1.1-4 2.5c-.4.9-.5 1.5-.6 2.6h9.2c0-1.1-.2-1.8-.6-2.6zM159.4 42.6l-5.9-10.1-2.6 2.9v7.2h-6V9.5h6v18.8l8-9.9h7.3l-8.6 9.7 9.3 14.4h-7.5zM192.1 42.6v-2.1c-1.6 1.6-3.2 2.3-5.9 2.3s-4.7-.7-6.2-2.1c-1.3-1.3-2-3.3-2-5.4 0-3.9 2.6-7 8.3-7h5.7V27c0-2.6-1.3-3.8-4.5-3.8-2.3 0-3.4.6-4.6 2l-3.9-3.8c2.4-2.6 4.7-3.3 8.7-3.3 6.8 0 10.3 2.9 10.3 8.5v15.9h-5.9zm-.1-10.2h-4.8c-2.2 0-3.4 1-3.4 2.7 0 1.7 1.1 2.8 3.5 2.8 1.7 0 2.7-.1 3.8-1.2.6-.6.9-1.6.9-3.1v-1.2zM211.5 42.9c-3.8 0-7.2-.4-10.3-3.5l3.9-3.9c2 2 4.6 2.3 6.5 2.3 2.1 0 4.3-.7 4.3-2.5 0-1.2-.6-2-2.6-2.2l-3.8-.4c-4.4-.4-7.1-2.3-7.1-6.8 0-5 4.4-7.7 9.3-7.7 3.8 0 6.9.6 9.2 2.8l-3.7 3.8c-1.4-1.3-3.5-1.6-5.6-1.6-2.4 0-3.4 1.1-3.4 2.3 0 .9.4 1.9 2.5 2.1l3.8.4c4.8.5 7.2 3 7.2 7.1.1 5.2-4.5 7.8-10.2 7.8zM225.8 14.3V9.4h6.2v4.9h-6.2zm.1 28.3V18.4h6v24.2h-6zM250.1 42.6v-2.1c-1.6 1.6-3.2 2.3-5.9 2.3s-4.7-.7-6.2-2.1c-1.3-1.3-2-3.3-2-5.4 0-3.9 2.6-7 8.3-7h5.7V27c0-2.6-1.3-3.8-4.5-3.8-2.3 0-3.4.6-4.6 2l-3.9-3.8c2.4-2.6 4.7-3.3 8.7-3.3 6.8 0 10.3 2.9 10.3 8.5v15.9h-5.9zm-.1-10.2h-4.8c-2.2 0-3.4 1-3.4 2.7 0 1.7 1.1 2.8 3.5 2.8 1.7 0 2.7-.1 3.8-1.2.6-.6.9-1.6.9-3.1v-1.2z"/>
</svg>
