<?xml version="1.0" encoding="utf-8"?>
<!-- Generator: Adobe Illustrator 15.0.2, SVG Export Plug-In . SVG Version: 6.00 Build 0)  -->
<!DOCTYPE svg PUBLIC "-//W3C//DTD SVG 1.1//EN" "http://www.w3.org/Graphics/SVG/1.1/DTD/svg11.dtd" [
	<!ENTITY st0 "fill:#FF1C1F;">
	<!ENTITY st1 "fill:#FF2B2D;">
	<!ENTITY st2 "fill:#FFFFFF;">
]>
<svg version="1.1" id="Layer_1" xmlns="http://www.w3.org/2000/svg" xmlns:xlink="http://www.w3.org/1999/xlink" x="0px" y="0px"
	 width="24px" height="24px" viewBox="0 0 24 24" style="enable-background:new 0 0 24 24;" xml:space="preserve">
<g>
	<path style="&st1;" d="M7.88,9.48c0.06,0.44,0.44,0.83,1,0.67c0.62-0.17,1.43,0.3,1.52,1.06c0.07,0.55,0.66,1.18,1.43,0.87
		l0.06-0.05c0-0.01-0.01-0.02-0.01-0.03c0-0.01,0-0.02,0.01-0.03c-0.03-0.02-0.05-0.04-0.08-0.05c-1.21-0.6-1.7-2.07-1.09-3.27
		c0.45-0.9,1.4-1.43,2.4-1.34c-0.4,0.2-0.65,0.67-0.33,1.16c0.36,0.54,0.16,1.45-0.54,1.77c-0.51,0.24-0.92,0.99-0.39,1.63
		c0.02,0.02,0.04,0.03,0.07,0.04c0.02-0.01,0.04-0.02,0.06-0.02c0.01-0.03,0.02-0.06,0.03-0.09c0.2-1.33,1.44-2.25,2.78-2.05
		c0.99,0.15,1.79,0.89,2.01,1.87c-0.31-0.32-0.84-0.42-1.21,0.05c-0.4,0.51-1.33,0.6-1.85,0.04c-0.38-0.41-1.23-0.57-1.67,0.13
		c-0.01,0.02-0.02,0.05-0.02,0.08c0.02,0.01,0.03,0.03,0.04,0.04h0.1c1.33-0.22,2.58,0.68,2.8,2.01c0.16,0.99-0.29,1.97-1.15,2.49
		c0.21-0.39,0.13-0.93-0.42-1.13c-0.61-0.22-0.98-1.08-0.61-1.75c0.27-0.49,0.16-1.34-0.64-1.54l-0.08,0
		c-0.01,0.02-0.02,0.03-0.03,0.05l0.03,0.1c0.58,1.13,0.2,2.51-0.87,3.19c-0.91,0.57-2.08,0.48-2.89-0.23
		c0.43,0.08,0.92-0.16,0.95-0.75c0.03-0.65,0.72-1.27,1.48-1.12c0.55,0.1,1.33-0.26,1.27-1.09c-0.01-0.02-0.02-0.05-0.03-0.07
		c-0.02,0-0.04-0.01-0.05-0.02c-0.03,0.02-0.06,0.04-0.08,0.06c-0.95,0.96-2.49,0.96-3.45,0.01C7.7,11.46,7.49,10.4,7.88,9.48z
		 M0,20.04h24V3.96H0L0,20.04L0,20.04z"/>
	<path style="&st2;" d="M11.61,8.71l0.22,0.19l0.25-0.15l-0.12,0.27l0.22,0.19L11.9,9.19l-0.12,0.27l-0.06-0.28l-0.29-0.03
		l0.25-0.15L11.61,8.71z M11.46,9.44l0.06,0.04c-0.44,0.65-0.42,1.8,0.36,2.39c-0.54-0.64-0.12-1.39,0.39-1.63
		c0.69-0.32,0.89-1.23,0.54-1.77c-0.33-0.49-0.07-0.97,0.33-1.16c-1.34-0.11-2.52,0.88-2.64,2.22c-0.08,0.99,0.44,1.94,1.33,2.39
		C10.98,11.27,11.04,10.04,11.46,9.44L11.46,9.44z"/>
	<path style="&st0;" d="M11.72,9.17l0.06,0.29l0.12-0.27l0.29,0.03l-0.22-0.19l0.12-0.27L11.83,8.9l-0.22-0.19l0.06,0.29l-0.25,0.15
		L11.72,9.17z M11.94,11.91l-0.07-0.04c-0.78-0.59-0.79-1.74-0.36-2.39l-0.06-0.04c-0.42,0.6-0.48,1.83,0.36,2.47l0.08,0.05
		C11.91,11.95,11.92,11.93,11.94,11.91"/>
	<path style="&st2;" d="M14.6,10.86l-0.06-0.29l0.22,0.19l0.25-0.15l-0.12,0.27l0.22,0.19l-0.29-0.03l-0.12,0.27l-0.06-0.29
		l-0.29-0.03L14.6,10.86z M14.26,10.7l-0.02,0.07c-0.75-0.22-1.84,0.15-2.16,1.08c0.44-0.71,1.28-0.54,1.67-0.13
		c0.52,0.56,1.45,0.47,1.85-0.04c0.37-0.46,0.9-0.36,1.21-0.04c-0.3-1.31-1.61-2.13-2.92-1.83c-0.98,0.22-1.72,1.02-1.87,2.01
		C12.38,10.8,13.56,10.48,14.26,10.7L14.26,10.7z"/>
	<path style="&st0;" d="M14.71,11.32l0.12-0.27l0.29,0.03l-0.22-0.19l0.12-0.27l-0.25,0.15l-0.22-0.19l0.06,0.29l-0.25,0.15
		l0.29,0.03L14.71,11.32z M12.06,11.92l0.02-0.08c0.32-0.92,1.41-1.29,2.16-1.08l0.02-0.07c-0.7-0.21-1.89,0.11-2.24,1.11
		c-0.01,0.03-0.02,0.06-0.03,0.09h0C12.02,11.89,12.04,11.9,12.06,11.92"/>
	<path style="&st2;" d="M9,11.2l-0.06-0.28l0.22,0.19l0.25-0.15l-0.12,0.27l0.22,0.19l-0.29-0.03l-0.12,0.27l-0.06-0.29l-0.29-0.03
		L9,11.2L9,11.2z M8.56,12.3c0.97,0.81,2.41,0.75,3.3-0.15c-0.87,0.6-2.02,0.16-2.46-0.42l0.05-0.04c0.48,0.62,1.58,0.96,2.38,0.4
		c-0.77,0.31-1.36-0.32-1.43-0.87c-0.09-0.76-0.9-1.23-1.52-1.06c-0.57,0.16-0.94-0.23-1-0.67C7.46,10.47,7.74,11.61,8.56,12.3
		L8.56,12.3z"/>
	<path style="&st0;" d="M9.11,11.66l0.12-0.27l0.29,0.03l-0.22-0.19l0.12-0.27l-0.25,0.15l-0.22-0.19L9,11.2l-0.25,0.15l0.29,0.03
		L9.11,11.66z M9.46,11.68L9.4,11.73c0.44,0.58,1.59,1.03,2.46,0.42l0.08-0.06c-0.02-0.01-0.04-0.03-0.05-0.06
		c-0.02,0.02-0.04,0.03-0.06,0.05C11.04,12.64,9.94,12.3,9.46,11.68"/>
	<path style="&st2;" d="M14.25,14.44l-0.29-0.03l-0.11,0.27l-0.06-0.29l-0.29-0.03l0.25-0.15l-0.06-0.29l0.22,0.19l0.25-0.15
		l-0.12,0.27L14.25,14.44L14.25,14.44z M13.94,13.75l-0.07,0c-0.03-0.78-0.71-1.7-1.69-1.72c0.81,0.2,0.91,1.06,0.64,1.54
		c-0.37,0.67,0,1.53,0.61,1.75c0.55,0.21,0.62,0.74,0.42,1.13c1.16-0.69,1.53-2.19,0.84-3.35c-0.51-0.86-1.5-1.31-2.49-1.15
		C13.26,11.99,13.93,13.02,13.94,13.75z"/>
	<path style="&st0;" d="M13.89,14.12l-0.22-0.19l0.07,0.29l-0.25,0.15l0.29,0.03l0.06,0.29l0.12-0.27l0.29,0.03l-0.22-0.19
		l0.12-0.27L13.89,14.12z M12.11,12c0,0.01,0,0.02-0.01,0.04c0.03,0,0.05,0,0.08,0c0.98,0.02,1.66,0.94,1.69,1.72l0.07,0
		c-0.01-0.73-0.68-1.76-1.74-1.79c-0.03,0-0.07,0-0.1,0C12.1,11.97,12.11,11.99,12.11,12"/>
	<path style="&st2;" d="M10.38,14.89l-0.06-0.29l-0.29-0.03l0.25-0.15l-0.06-0.28l0.22,0.19l0.25-0.15l-0.12,0.27l0.22,0.19
		l-0.29-0.03L10.38,14.89z M10.94,14.39l-0.03-0.06c0.74-0.27,1.4-1.21,1.11-2.14c0.06,0.83-0.72,1.19-1.27,1.09
		c-0.75-0.15-1.45,0.47-1.48,1.12c-0.03,0.59-0.51,0.82-0.95,0.75c1.02,0.88,2.56,0.77,3.44-0.25c0.65-0.75,0.78-1.82,0.33-2.71
		C12.4,13.19,11.63,14.15,10.94,14.39z"/>
	<path style="&st0;" d="M10.57,14.46l0.12-0.27l-0.25,0.15l-0.22-0.19l0.06,0.28l-0.25,0.15l0.29,0.03l0.06,0.29l0.12-0.27
		l0.29,0.03L10.57,14.46z M12,12.11c0.01,0.02,0.02,0.05,0.03,0.07c0.28,0.93-0.38,1.87-1.12,2.14l0.03,0.07
		c0.69-0.24,1.46-1.19,1.16-2.21c-0.01-0.03-0.02-0.06-0.03-0.1C12.05,12.1,12.02,12.11,12,12.11"/>
	<path style="&st0;" d="M11.94,12.09c0.02,0.01,0.04,0.02,0.05,0.02h0c0.05,0,0.09-0.03,0.1-0.07c0.01-0.02,0.01-0.05,0-0.07
		c-0.01-0.02-0.02-0.03-0.04-0.04c-0.02-0.01-0.04-0.02-0.06-0.02h0c-0.05,0-0.09,0.03-0.1,0.08c0,0.01-0.01,0.02-0.01,0.03
		c0,0.01,0,0.02,0.01,0.03C11.91,12.06,11.92,12.08,11.94,12.09"/>
</g>
</svg>
