<svg xmlns="http://www.w3.org/2000/svg" viewBox="0 0 24 24"><path fill="currentColor" d="M16.7 7.4c-.4-.4-.9-.4-1.3 0L12 10.8 8.6 7.4c-.9-.9-2.1.3-1.2 1.2l3.4 3.4-3.4 3.4c-.4.4-.4.9 0 1.3s.9.4 1.3 0l3.4-3.4 3.4 3.4c.4.4.9.4 1.3 0s.4-.9 0-1.3L13.3 12l3.4-3.4c.3-.3.3-.9 0-1.2-.4-.4 0 0 0 0z"/><path d="M23.1 7.3C20.6 1.2 13.4-1.6 7.4.9 1.3 3.4-1.5 10.6 1 16.6c2.5 6.1 9.7 8.9 15.7 6.4 6-2.4 8.9-9.6 6.4-15.7-.5-1.4.7 1.5 0 0zm-3.8 12c-3.9 3.9-10.6 3.9-14.5 0C.9 15.4.9 8.7 4.8 4.8 8.7.9 15.4.9 19.3 4.8c4 4 4 10.4 0 14.5-1.9 1.8 1.8-1.9 0 0z"/></svg>