<svg xmlns="http://www.w3.org/2000/svg" viewBox="0 0 24 24"><path fill="currentColor" d="M12 24C5.4 24 0 18.6 0 12S5.4 0 12 0s12 5.4 12 12-5.4 12-12 12c-1.6 0 0 0 0 0zm0-22.2C6.4 1.8 1.8 6.4 1.8 12c0 5.5 4.6 10.2 10.2 10.2 5.5 0 10.2-4.7 10.2-10.2 0-5.6-4.7-10.2-10.2-10.2-2.7 0 0 0 0 0zM7.8 4.9c.8 0 1.5.6 1.5 1.5s-.6 1.5-1.5 1.5c-.8 0-1.5-.6-1.5-1.5.1-.8.6-1.5 1.5-1.5M6.6 9H9v8H6.6V9zm3.9 0h2.4v1.1c.3-.6 1.2-1.4 2.4-1.4 2.6 0 3 1.7 3 3.8v4.4h-2.5v-3.7c0-.9 0-2.1-1.4-2.1-1.3 0-1.5 1.1-1.5 1.9v4h-2.4V9z"/></svg>