<?xml version="1.0" encoding="UTF-8"?>
<svg width="19px" height="20px" viewBox="0 0 19 20" version="1.1" xmlns="http://www.w3.org/2000/svg" xmlns:xlink="http://www.w3.org/1999/xlink">
    <!-- Generator: Sketch 50.2 (55047) - http://www.bohemiancoding.com/sketch -->
    <title>language</title>
    <desc>Created with Sketch.</desc>
    <defs></defs>
    <g id="Page-1" stroke="none" stroke-width="1" fill="none" fill-rule="evenodd">
        <g id="Language">
            <g id="language">
                <g id="Group-11">
                    <path d="M10.4211926,9.47890824 C10.5683213,9.4156822 10.7114407,9.34916366 10.8279868,9.27084001 C11.5522716,8.93657628 12.3596005,8.75 13.2107546,8.75 C16.338558,8.75 18.8725066,11.2675 18.8725066,14.375 C18.8725066,15.295 18.6284222,16.15 18.2346159,16.9175 L18.8045656,17.49875 C18.9390473,17.6362076 19.0143531,17.820863 19.0143531,18.0131647 C19.0143531,18.4194172 18.6850203,18.74875 18.2787678,18.74875 L17.580369,18.74875 L16.729848,18.74875 C15.7610593,19.52 14.5481862,20 13.2107546,20 C10.0842094,20 7.54900264,17.48125 7.54900264,14.375 C7.54900264,12.275515 8.7062246,10.4453417 10.4211926,9.47890824 Z M9.32006997,8.68845477 C9.04289707,8.58378653 8.7849194,8.45752794 8.5380848,8.2988794 C9.18348747,7.63049763 9.66753222,6.74251804 9.99023356,5.63491397 L10.4853511,5.63491397 C10.7780226,5.63491397 11.0152797,5.39765685 11.0152797,5.10498536 C11.0152797,4.81231388 10.7780226,4.57505676 10.4853511,4.57505676 L8.31029676,4.57505676 L8.31029676,4.22720846 C8.31029676,3.84979687 8.00434422,3.54384433 7.62693264,3.54384433 C7.24952105,3.54384433 6.94356851,3.84979687 6.94356851,4.22720846 L6.94356851,4.57505676 L4.74004064,4.57505676 C4.44736915,4.57505676 4.21011203,4.81231388 4.21011203,5.10498536 C4.21011203,5.39765685 4.44736915,5.63491397 4.74004064,5.63491397 L5.23515821,5.63491397 C5.57684198,6.70432479 6.05139565,7.58275622 6.65883346,8.27023461 C6.01343079,8.69036029 5.23515821,9.04364393 4.15316502,9.33009182 C3.69758894,10.4185938 4.6087411,10.4185938 4.86500265,10.389949 C5.94700125,10.0080166 6.8581443,9.57834905 7.59845913,9.1009335 C7.80952367,9.23704518 8.04913181,9.39488763 8.288251,9.54259815 C7.05321894,10.7842896 6.29083553,12.4910416 6.29083553,14.375 C6.29083553,14.54875 6.52386315,14.9364426 6.31725704,14.89125 C6.11065093,14.8460574 4.29412433,14.30875 3.43353803,13.75 L2.55030472,13.75 L1.85190593,13.75 C1.6596043,13.75 1.47494883,13.6746942 1.33749126,13.5402125 C1.04710116,13.2561091 1.04200475,12.7903901 1.32610813,12.5 L1.66078058,12.15875 C0.63034172,10.87875 0,9.2675 0,7.5 C0,3.3575 3.37943685,0 7.54900264,0 C11.7173103,0 15.0980053,3.3575 15.0980053,7.5 C15.0980053,7.58875 15.2001845,7.76125 15.0841654,7.76125 C14.9681464,7.76125 13.861227,7.5 13.2107546,7.5 C11.7680947,7.5 10.4286721,7.93840328 9.32006997,8.68845477 Z M10.5444791,16.4741664 C10.5444791,16.7647816 10.7683591,16.9972738 11.0572365,16.9972738 C11.2883384,16.9972738 11.4761087,16.8664969 11.5699939,16.6485355 L11.9238687,15.8130169 L14.1482248,15.8130169 L14.4876558,16.6122087 C14.5887629,16.8447008 14.7620893,16.9972738 15.022079,16.9972738 C15.3181784,16.9972738 15.5492803,16.7575162 15.5492803,16.4596357 C15.5492803,16.3869819 15.5276145,16.3143281 15.4915048,16.2344089 L13.7293526,12.2311848 C13.6065797,11.9551004 13.3899216,11.7879967 13.0866003,11.7879967 L13.0216029,11.7879967 C12.7182816,11.7879967 12.4944016,11.9551004 12.3716287,12.2311848 L10.6094765,16.2344089 C10.5733668,16.3143281 10.5444791,16.3942473 10.5444791,16.4741664 Z M12.335519,14.8249253 L13.0360468,13.1466226 L13.7365745,14.8249253 L12.335519,14.8249253 Z M7.59845913,7.52547008 C7.12389834,7.00986129 6.75374648,6.37968222 6.48799243,5.63491397 L8.70892583,5.63491397 C8.50011908,6.37968222 8.12996722,7.00986129 7.59845913,7.52547008 Z" id="Combined-Shape" fill="currentColor"></path>
                    <rect id="Rectangle-14-Copy" x="0" y="0" width="20" height="20"></rect>
                </g>
            </g>
        </g>
    </g>
</svg>