<svg xmlns="http://www.w3.org/2000/svg" viewBox="0 0 24 24"><path fill="currentColor" d="M13.1 11.38c.18-.08.35-.16.49-.25.87-.4 1.84-.63 2.86-.63 3.75 0 6.79 3.02 6.79 6.75 0 1.1-.29 2.13-.77 3.05l.68.7c.16.17.25.39.25.62 0 .49-.39.88-.88.88h-1.86c-1.16.93-2.62 1.5-4.22 1.5-3.75 0-6.79-3.02-6.79-6.75 0-2.52 1.39-4.72 3.45-5.87zm-1.32-.95a5.5 5.5 0 0 1-.94-.47c.77-.8 1.35-1.87 1.74-3.2h.59c.35 0 .64-.28.64-.64s-.29-.64-.64-.64h-2.61v-.41c0-.45-.37-.82-.82-.82s-.82.37-.82.82v.42H6.28c-.35 0-.64.28-.64.64s.29.64.64.64h.59c.41 1.27.98 2.33 1.71 3.15-.77.5-1.71.93-3.01 1.27-.55 1.31.55 1.31.85 1.27 1.3-.46 2.39-.97 3.28-1.55.25.16.54.35.83.53a8.212 8.212 0 0 0-2.4 5.8c0 .21.28.67.03.62-.25-.05-2.43-.7-3.46-1.37H2.81c-.23 0-.45-.09-.62-.25a.884.884 0 0 1-.01-1.25l.4-.41C1.35 13.05.59 11.12.59 9c0-4.97 4.06-9 9.06-9 5 0 9.06 4.03 9.06 9 0 .11.12.31-.02.31-.14 0-1.46-.31-2.24-.31-1.74 0-3.34.53-4.67 1.43zm1.47 9.34c0 .35.27.63.61.63.28 0 .5-.16.62-.42l.42-1h2.67l.41.96c.12.28.33.46.64.46.36 0 .63-.29.63-.65 0-.09-.03-.17-.07-.27l-2.12-4.8c-.15-.33-.41-.53-.77-.53h-.08c-.36 0-.63.2-.78.53l-2.11 4.8a.77.77 0 0 0-.07.29zm2.14-1.98l.84-2.01.84 2.01h-1.68zM9.71 9.03c-.57-.62-1.01-1.37-1.33-2.27h2.67c-.26.9-.7 1.65-1.34 2.27z"/></svg>