<svg xmlns="http://www.w3.org/2000/svg" viewBox="0 0 24 24"><path fill="currentColor" d="M1.2 1h3.2c.7 0 1.2.5 1.2 1.2v1.5H0V2.2C0 1.6.5 1 1.2 1zM0 5.1h5.6V19c0 .7-.5 1.2-1.2 1.2H1.2C.5 20.2 0 19.7 0 19V5.1zm7.2 0h5.6V19c0 .7-.5 1.2-1.2 1.2H8.4c-.7 0-1.2-.5-1.2-1.2V5.1zM8.4 1h3.2c.7 0 1.2.5 1.2 1.2v1.5H7.2V2.2c0-.6.6-1.2 1.2-1.2zm6.3.5l3.1-.8c.6-.2 1.3.2 1.5.8l.4 1.4-5.4 1.4-.4-1.3c-.2-.7.2-1.3.8-1.5zm-.1 3.9L20 3.9l3.6 13.4c.2.6-.2 1.3-.8 1.5l-3.1.8c-.6.2-1.3-.2-1.5-.8L14.6 5.4zM1 21.5h22c.5 0 1 .4 1 1 0 .5-.4 1-1 1H1c-.5 0-1-.4-1-1s.4-1 1-1z"/></svg>